<svg width="14" height="14" viewBox="0 0 14 14" fill="none" xmlns="http://www.w3.org/2000/svg">
            <g clip-path="url(#tx66b3ofza)" fill="#CCC">
                <path
                    d="M7.002 3.405a3.592 3.592 0 1 0 0 7.184 3.592 3.592 0 0 0 0-7.184zm0 5.924a2.33 2.33 0 1 1-.001-4.662 2.33 2.33 0 0 1 .001 4.662z" />
                <path
                    d="M9.886.044c-1.288-.06-4.478-.057-5.767 0C2.986.097 1.987.371 1.18 1.176-.165 2.523.007 4.336.007 6.997c0 2.723-.152 4.495 1.174 5.821 1.352 1.351 3.192 1.175 5.821 1.175 2.698 0 3.629.001 4.582-.368 1.297-.503 2.276-1.662 2.372-3.744.06-1.289.057-4.479 0-5.768C13.84 1.656 12.52.165 9.886.044zm2.039 11.884c-.883.882-2.107.803-4.94.803-2.916 0-4.086.044-4.94-.812-.982-.978-.804-2.55-.804-4.931 0-3.223-.331-5.544 2.903-5.71.744-.026.962-.035 2.833-.035l.026.018c3.109 0 5.548-.326 5.694 2.908.034.738.041.96.041 2.828 0 2.883.054 4.06-.813 4.93z" />
                <path d="M10.737 4.104a.84.84 0 1 0 0-1.68.84.84 0 0 0 0 1.68z" />
            </g>
            <defs>
                <clipPath id="tx66b3ofza">
                    <path fill="#fff" d="M0 0h14v14H0z" />
                </clipPath>
            </defs>
        </svg>