  <svg width="14" height="14" viewBox="0 0 14 14" fill="none" xmlns="http://www.w3.org/2000/svg">
            <g clip-path="url(#pqcb4yeema)" fill="#CCC">
                <path
                    d="M13.996 14H14V8.864c0-2.512-.54-4.447-3.477-4.447-1.412 0-2.36.775-2.746 1.51h-.04V4.651H4.951V14h2.9V9.371c0-1.219.23-2.397 1.74-2.397 1.486 0 1.508 1.39 1.508 2.475V14h2.896zM.231 4.653h2.903V14H.23V4.653zM1.681 0C.753 0 0 .753 0 1.681s.753 1.697 1.681 1.697 1.681-.769 1.681-1.697S2.61 0 1.682 0z" />
            </g>
            <defs>

                <clipPath id="pqcb4yeema">
                    <path fill="#fff" d="M0 0h14v14H0z" />
                </clipPath>
            </defs>
        </svg>