     <svg
                width="124"
                height="34"
                viewBox="0 0 124 34"
                fill="none"
                xmlns="http://www.w3.org/2000/svg"
              >
                <g clip-path="url(#g1slayc3va)">
                  <mask
                    id="390ulk0nkb"
                    style="mask-type:luminance"
                    maskUnits="userSpaceOnUse"
                    x="0"
                    y="0"
                    width="124"
                    height="34"
                  >
                    <path d="M124 0H0v34h124V0z" fill="#fff" />
                  </mask>
                  <g mask="url(#390ulk0nkb)" fill="#fff">
                    <path d="M23.306 17.013A17.214 17.214 0 0 1 26.2 7.357a16.617 16.617 0 0 1 7.75-6.253 16.194 16.194 0 0 1 9.852-.625 16.487 16.487 0 0 1 8.447 5.224c5.517 6.359 11.028 12.724 16.533 19.094a11.57 11.57 0 0 0 5.883 3.682c2.28.59 4.682.456 6.886-.382a11.65 11.65 0 0 0 5.46-4.311 12.071 12.071 0 0 0 2.107-6.72 12.079 12.079 0 0 0-1.989-6.757 11.664 11.664 0 0 0-5.383-4.41 11.362 11.362 0 0 0-6.878-.509 11.558 11.558 0 0 0-5.947 3.574c-.743.852-1.446 1.732-2.235 2.527a2.407 2.407 0 0 1-1.635.752 2.397 2.397 0 0 1-1.695-.599 2.425 2.425 0 0 1-.874-1.534 2.458 2.458 0 0 1 .389-1.731C66.274 3.666 70.544.411 76.498.04a16.247 16.247 0 0 1 8.144 1.634 16.672 16.672 0 0 1 6.348 5.47 17.194 17.194 0 0 1 2.96 7.933 17.316 17.316 0 0 1-1.17 8.407 16.922 16.922 0 0 1-5.006 6.772 16.39 16.39 0 0 1-7.588 3.44c-2.773.468-5.618.208-8.266-.758a16.558 16.558 0 0 1-6.87-4.764C59.526 21.82 54.068 15.406 48.51 9.082a10.99 10.99 0 0 0-5.437-3.623 10.77 10.77 0 0 0-6.486.14 11.029 11.029 0 0 0-5.375 3.326 11.437 11.437 0 0 0-2.741 5.781 12.127 12.127 0 0 0 1.016 7.57 11.743 11.743 0 0 0 5.311 5.37 11.371 11.371 0 0 0 7.41.95 11.558 11.558 0 0 0 6.441-3.864 29.348 29.348 0 0 1 2.184-2.42 2.294 2.294 0 0 1 1.622-.632c.6.012 1.173.26 1.598.695a2.501 2.501 0 0 1 .357 3.295 19.978 19.978 0 0 1-9.147 7.364 16.35 16.35 0 0 1-11.764-.426c-3.74-1.598-6.786-4.533-8.569-8.258a16.849 16.849 0 0 1-1.63-7.337M107.173.346c2.358 0 4.731-.07 7.092.013 8.514.297 11.067 7.683 9.112 13.893-1.279 4.064-4.473 6.436-9.061 6.63-3.399.143-6.806.057-10.209.074-1.73.01-1.772.06-1.773 1.884 0 2.713.051 5.429-.039 8.14a2.949 2.949 0 0 1-.352 1.515c-.25.463-.62.848-1.068 1.11a2.783 2.783 0 0 1-2.933-.07 2.649 2.649 0 0 1-1.033-1.02 2.73 2.73 0 0 1-.355-1.422c-.01-3.74-.054-7.48.03-11.215a4.172 4.172 0 0 1 .213-1.753 4.098 4.098 0 0 1 .916-1.497 3.982 3.982 0 0 1 1.447-.96 3.907 3.907 0 0 1 1.709-.247c3.607-.141 7.235-.06 10.853-.082.788 0 1.579.007 2.358-.054a4.08 4.08 0 0 0 1.67-.397c.524-.249.991-.607 1.372-1.052.381-.444.668-.964.842-1.528.173-.564.23-1.158.167-1.746a4.137 4.137 0 0 0-1.133-3.12 3.976 3.976 0 0 0-1.388-.937 3.899 3.899 0 0 0-1.641-.276c-3.688-.07-7.38-.022-11.07-.027-1.146 0-2.295.029-3.44-.014a2.803 2.803 0 0 1-1.13-.207 2.857 2.857 0 0 1-.96-.646 2.935 2.935 0 0 1-.633-.98 2.987 2.987 0 0 1-.207-1.157 2.882 2.882 0 0 1 .212-1.131c.145-.358.362-.682.635-.951a2.75 2.75 0 0 1 .954-.612 2.702 2.702 0 0 1 1.113-.172c2.579-.048 5.159-.013 7.738-.013v.033M0 13.37c0-3.228-.014-6.456 0-9.684a3.066 3.066 0 0 1 .526-2.098A2.94 2.94 0 0 1 2.29.394C2.721.288 3.17.287 3.6.39c.432.104.833.31 1.172.601.34.292.608.66.783 1.076.175.416.252.869.226 1.321.026 4.108.012 8.218.015 12.327 0 2.13-.018 4.258 0 6.388.042 3.74 1.804 5.694 5.488 5.94 2 .133 4.014.062 6.021.076 1.757.013 3.516-.045 5.272.043.37.009.735.092 1.073.246.339.153.644.374.899.649.255.274.454.598.585.952.132.354.194.731.183 1.11a2.833 2.833 0 0 1-.756 1.95c-.49.525-1.16.835-1.869.864-4.332.165-8.67.105-12.997-.18C3.427 33.13.277 29.409.06 22.945c-.11-3.187-.018-6.382-.018-9.574H0z" />
                  </g>
                </g>
                <defs>
                  <clipPath id="g1slayc3va">
                    <path fill="#fff" d="M0 0h124v34H0z" />
                  </clipPath>
                </defs>
              </svg>