 <svg width="14" height="14" viewBox="0 0 14 14" fill="none" xmlns="http://www.w3.org/2000/svg">
            <g clip-path="url(#pwaam4s7ka)">
                <path
                    d="M12.562 4.15A5.73 5.73 0 0 0 14 2.66c-.52.228-1.075.379-1.654.452a2.855 2.855 0 0 0 1.263-1.586 5.744 5.744 0 0 1-1.82.695 2.87 2.87 0 0 0-4.965 1.962c0 .228.02.446.067.655A8.126 8.126 0 0 1 .975 1.835a2.873 2.873 0 0 0 .882 3.836A2.837 2.837 0 0 1 .56 5.318v.031c0 1.395.995 2.553 2.3 2.82a2.854 2.854 0 0 1-.753.095c-.184 0-.37-.01-.543-.049a2.898 2.898 0 0 0 2.681 2 5.77 5.77 0 0 1-3.558 1.224c-.236 0-.461-.01-.687-.04a8.082 8.082 0 0 0 4.403 1.289c5.065 0 8.366-4.226 8.159-8.539z"
                    fill="#4478FF" />
            </g>
            <defs>
                <clipPath id="pwaam4s7ka">
                    <path fill="#fff" d="M0 0h14v14H0z" />
                </clipPath>
            </defs>
        </svg>