<svg width="242" height="230" viewBox="0 0 242 230" fill="none" xmlns="http://www.w3.org/2000/svg">
    <g clip-path="url(#mn1hck8h7a)" fill="#131825" fill-opacity=".2">
        <path d="m242.38 195.606-11.578-4.274 2.155 12.264 9.423-7.99zM212.757 113.01h-12.28l6.165 10.84 6.115-10.84zM157.17 45.733l-11.578 4.275 9.423 8.04 2.155-12.315zM82.235 1.814l-9.423 8.04 11.529 4.276-2.106-12.316zM-2.975 442.427c-110.221 0-199.842-91.044-199.842-202.902 0-111.858 89.621-202.952 199.842-202.952 110.222 0 199.843 91.043 199.843 202.901S107.197 442.376-2.975 442.376v.051zm0-402.241c-108.216 0-196.284 89.415-196.284 199.288 0 109.874 88.068 199.289 196.284 199.289 108.217 0 196.284-89.415 196.284-199.289 0-109.873-88.067-199.288-196.284-199.288z"/>
        <path d="M-2.975 476.422c-128.667 0-233.325-106.26-233.325-236.897S-131.642 2.628-2.975 2.628c128.667 0 233.325 106.26 233.325 236.897S125.692 476.422-2.975 476.422zm0-471.656c-127.514 0-231.22 105.344-231.22 234.759s103.756 234.759 231.22 234.759 231.22-105.344 231.22-234.759S124.489 4.715-2.975 4.715v.05z"/>
        <path d="M-2.975 478.865c-130.021 0-235.781-107.38-235.781-239.391S-132.996.134-2.975.134c130.021 0 235.782 107.38 235.782 239.391S127.046 478.915-2.975 478.915v-.05zm0-477.814c-129.519 0-234.879 106.972-234.879 238.474s105.36 238.474 234.88 238.474c129.518 0 234.878-106.972 234.878-238.474S126.494 1.051-2.975 1.051z"/>
        <path d="M-2.975 446.04c-112.176 0-203.401-92.621-203.401-206.515 0-113.893 91.225-206.515 203.401-206.515 112.177 0 203.402 92.622 203.402 206.515 0 113.894-91.225 206.515-203.402 206.515zm0-409.417c-110.222 0-199.843 91.044-199.843 202.902 0 111.858 89.671 202.902 199.843 202.902 110.172 0 199.843-91.044 199.843-202.902 0-111.858-89.671-202.901-199.843-202.901z"/>
        <path d="M208.397 239.983v-.916h-6.216a209.63 209.63 0 0 0-3.007-35.267l6.115-1.12-.15-.865-6.116 1.068a210.08 210.08 0 0 0-9.022-34.198l5.815-2.138-.301-.865-5.814 2.138a213.195 213.195 0 0 0-14.787-32.061l5.413-3.156-.451-.763-5.413 3.206c-5.865-10.229-12.581-19.949-20.05-28.957l4.862-4.122-.551-.712-4.862 4.122c-7.518-9.008-15.739-17.405-24.661-25.039l4.06-4.936-.701-.56-4.06 4.937c-8.922-7.583-18.446-14.403-28.52-20.357l3.157-5.496-.752-.458-3.108 5.496A207.068 207.068 0 0 0 67.7 43.952l2.105-5.904-.852-.305-2.106 5.903a202.005 202.005 0 0 0-33.682-9.16l1.052-6.209-.852-.152-1.103 6.208A200.478 200.478 0 0 0-2.473 31.28v-6.31h-.903v6.31c-11.829 0-23.458 1.068-34.735 3.053l-1.103-6.208-.852.152 1.053 6.209a202.008 202.008 0 0 0-33.684 9.16l-2.105-5.903-.852.305 2.105 5.904a207.097 207.097 0 0 0-31.578 15.012l-3.107-5.496-.752.458 3.158 5.496a202.552 202.552 0 0 0-28.521 20.357l-4.06-4.937-.701.56 4.06 4.936c-8.872 7.634-17.143 15.98-24.661 25.039l-4.862-4.122-.551.712 4.862 4.122a208.71 208.71 0 0 0-20.05 28.957l-5.413-3.206-.451.763 5.413 3.156a213.294 213.294 0 0 0-14.787 32.061l-5.814-2.138-.301.865 5.815 2.138a210.08 210.08 0 0 0-9.022 34.198l-6.116-1.068-.15.865 6.115 1.12a209.63 209.63 0 0 0-3.007 35.267h-6.216v.916h6.216a209.63 209.63 0 0 0 3.007 35.267l-6.115 1.12.15.865 6.116-1.069a210.092 210.092 0 0 0 9.022 34.199l-5.815 2.137.301.865 5.814-2.137a213.294 213.294 0 0 0 14.787 32.061l-5.413 3.155.451.764 5.413-3.206c5.865 10.229 12.581 19.949 20.05 28.957l-4.862 4.122.551.712 4.862-4.122c7.518 9.008 15.739 17.405 24.661 25.038l-4.06 4.937.701.559 4.06-4.936c8.922 7.583 18.446 14.402 28.521 20.356l-3.158 5.497.752.458 3.107-5.497a207.023 207.023 0 0 0 31.578 15.013l-2.105 5.904.852.305 2.106-5.903a202.103 202.103 0 0 0 33.682 9.16l-1.052 6.209.852.152 1.103-6.208a200.547 200.547 0 0 0 34.735 3.053v6.311h.903v-6.311c11.829 0 23.457-1.069 34.735-3.053l1.103 6.208.852-.152-1.053-6.209a202.1 202.1 0 0 0 33.683-9.16l2.106 5.903.852-.305-2.105-5.904a206.994 206.994 0 0 0 31.578-15.013l3.107 5.497.752-.458-3.158-5.497a202.52 202.52 0 0 0 28.521-20.356l4.06 4.936.701-.559-4.06-4.937c8.872-7.633 17.143-15.979 24.661-25.038l4.862 4.122.551-.712-4.862-4.122a208.71 208.71 0 0 0 20.05-28.957l5.413 3.206.451-.764-5.413-3.155a213.195 213.195 0 0 0 14.787-32.061l5.814 2.137.301-.865-5.815-2.137a210.092 210.092 0 0 0 9.022-34.199l6.116 1.069.15-.865-6.115-1.12a209.63 209.63 0 0 0 3.007-35.267h6.216zm-10.125 35.115c-.05.305-.101.61-.151.865a208.31 208.31 0 0 1-9.022 34.046c-.1.305-.2.559-.301.865a206.475 206.475 0 0 1-14.736 31.908l-.451.764c-5.865 10.178-12.531 19.847-19.949 28.855-.201.254-.401.458-.552.712a204.526 204.526 0 0 1-24.56 24.937 3.792 3.792 0 0 1-.702.559 205.076 205.076 0 0 1-28.42 20.255l-.752.458c-9.975 5.852-20.5 10.84-31.427 14.962-.301.102-.552.204-.852.305a200.311 200.311 0 0 1-33.533 9.161c-.301.051-.602.101-.852.152a198.72 198.72 0 0 1-34.586 3.054h-.902c-11.779 0-23.357-1.069-34.585-3.054-.3-.051-.602-.101-.852-.152a200.306 200.306 0 0 1-33.533-9.161c-.3-.101-.551-.203-.852-.305-10.927-4.071-21.453-9.11-31.428-14.962l-.751-.458a208.054 208.054 0 0 1-28.42-20.255c-.251-.203-.452-.407-.702-.559a204.606 204.606 0 0 1-24.561-24.937 3.832 3.832 0 0 1-.551-.712 208.311 208.311 0 0 1-19.949-28.855l-.451-.764c-5.765-10.127-10.677-20.814-14.737-31.908-.1-.306-.2-.56-.301-.865a208.412 208.412 0 0 1-9.022-34.046c-.05-.306-.1-.611-.15-.865a207.837 207.837 0 0 1-3.008-35.115v-.916c0-11.959 1.053-23.715 3.008-35.115a208.412 208.412 0 0 1 9.172-34.911c.101-.305.201-.56.301-.865a206.44 206.44 0 0 1 14.737-31.909l.451-.763c5.864-10.178 12.531-19.847 19.949-28.855.2-.254.401-.458.551-.712A204.57 204.57 0 0 1-134.599 81c.2-.204.451-.407.702-.56a205.051 205.051 0 0 1 28.42-20.254l.751-.458c9.975-5.853 20.501-10.84 31.428-14.962.3-.102.551-.204.852-.306a200.305 200.305 0 0 1 33.533-9.16c.3-.05.601-.102.852-.153a198.748 198.748 0 0 1 34.585-3.053h.902c11.78 0 23.358 1.069 34.586 3.053.3.051.601.102.852.153a200.31 200.31 0 0 1 33.533 9.16c.3.102.55.204.852.306a200.529 200.529 0 0 1 31.427 14.962l.752.458a208.142 208.142 0 0 1 28.42 20.254c.251.204.451.407.702.56a204.49 204.49 0 0 1 24.56 24.937c.201.203.401.458.552.712a208.398 208.398 0 0 1 19.949 28.855l.451.763c5.764 10.128 10.676 20.815 14.736 31.909.101.305.201.56.301.865a208.31 208.31 0 0 1 9.022 34.046c.05.305.101.611.151.865a207.94 207.94 0 0 1 3.007 35.115v.916a207.94 207.94 0 0 1-3.007 35.115zM214.512 199.881c-.351.051-.702 0-1.003-.101-.3-.153-.601-.357-.802-.662-.1.407-.3.763-.601 1.069-.301.305-.602.458-1.003.509-.651.101-1.203 0-1.704-.408-.451-.407-.752-.966-.902-1.679-.15-.763 0-1.374.251-1.934.3-.509.802-.865 1.453-.967.401-.051.752 0 1.153.153.351.153.652.407.902.763.101-.356.301-.661.552-.916.25-.254.551-.407.902-.458.651-.101 1.153 0 1.604.357.451.356.752.865.852 1.577.1.713 0 1.323-.251 1.781-.3.509-.752.764-1.403.916zm-3.609-.509c.351-.05.652-.254.852-.508.201-.255.251-.56.201-.967-.051-.357-.251-.662-.502-.815-.25-.203-.601-.254-.952-.152-.351.051-.652.203-.802.458-.201.254-.251.56-.15.967.05.356.2.661.451.814.25.153.551.203.952.153l-.05.05zm3.308-.763c.301-.051.551-.203.752-.407.2-.204.251-.509.2-.814-.05-.306-.2-.56-.451-.713-.25-.152-.501-.203-.852-.152-.351.05-.601.203-.752.407-.15.203-.2.509-.15.814.05.305.201.56.451.712.251.153.501.204.852.153h-.05zM213.259 206.548c-1.053.204-1.905.153-2.557-.152-.651-.306-1.002-.866-1.152-1.731-.151-.814 0-1.476.451-1.985.451-.508 1.203-.865 2.255-1.068l1.303-.255c1.053-.203 1.905-.152 2.507.204.601.305 1.002.865 1.102 1.73.151.814 0 1.476-.451 1.985-.451.509-1.203.865-2.255 1.069l-1.304.254.101-.051zm1.153-1.527c.701-.101 1.203-.305 1.503-.559.301-.255.401-.611.351-1.018-.05-.407-.301-.713-.601-.814-.351-.153-.852-.153-1.504 0l-1.704.305c-.702.102-1.203.305-1.504.56-.301.254-.401.61-.351 1.018.05.407.301.661.652.814.351.152.852.152 1.554 0l1.704-.306h-.1zM205.74 161.866l-7.518-.509-.451-1.272 7.217.61-1.353-3.715.952-.356 1.805 4.987-.652.255zM204.337 168.838c-1.003.356-1.855.458-2.506.254-.652-.203-1.153-.712-1.404-1.475-.301-.764-.25-1.476.151-2.036.35-.56 1.052-1.069 2.055-1.425l1.253-.458c1.002-.356 1.854-.458 2.506-.254.652.203 1.103.712 1.403 1.475.301.815.251 1.476-.1 2.036s-1.052 1.069-2.005 1.425l-1.253.458h-.1zm.902-1.679c.652-.255 1.103-.509 1.353-.815.251-.305.301-.661.151-1.068-.151-.407-.401-.611-.752-.713-.351-.102-.852 0-1.504.204l-1.604.61c-.651.255-1.102.509-1.403.815-.251.305-.301.661-.151 1.068.151.408.401.611.752.713.351.051.852 0 1.504-.255l1.604-.61.05.051zM189.3 124.97l-.903.509-.1-.153c-.351-.611-.802-1.018-1.353-1.221-.551-.204-1.153-.153-1.754.152.551.153 1.002.509 1.353 1.069.351.611.401 1.171.2 1.73-.2.56-.651 1.069-1.303 1.425-.651.407-1.303.509-1.955.356-.651-.152-1.153-.559-1.503-1.221-.401-.661-.452-1.323-.201-2.036.251-.712.752-1.272 1.554-1.73l.351-.203c1.153-.662 2.205-.916 3.208-.713.952.204 1.754.814 2.356 1.883v.102l.05.051zm-3.81.661s-.351-.407-.601-.559a2.047 2.047 0 0 0-.802-.153l-.351.203c-.501.306-.802.611-1.003.967-.15.357-.15.713 0 1.069.151.356.452.509.802.56.351 0 .752 0 1.103-.255.401-.254.652-.508.802-.865.151-.356.1-.661-.05-1.018l.1.051zM188.999 133.468c-.952.56-1.754.815-2.456.713-.702-.102-1.253-.458-1.654-1.222-.401-.712-.501-1.425-.2-2.035.25-.662.852-1.222 1.754-1.781l1.153-.662c.952-.56 1.754-.814 2.406-.712.651.101 1.203.508 1.654 1.221.401.712.501 1.425.25 2.036-.25.61-.852 1.221-1.754 1.781l-1.153.661zm.602-1.832c.601-.356 1.002-.712 1.203-1.068.2-.357.2-.713 0-1.069-.201-.356-.502-.56-.852-.56-.351 0-.853.153-1.404.458l-1.504.865c-.601.356-1.002.713-1.203 1.069-.2.356-.2.712 0 1.069.201.356.502.559.852.559.351 0 .853-.152 1.454-.509l1.504-.865-.05.051zM161.682 92.45l3.207-2.188 2.607 3.155-.852.713-1.955-2.341-1.504 1.018c.401.152.702.356 1.003.712.451.56.651 1.17.551 1.781-.1.611-.451 1.17-1.053 1.68-.601.509-1.203.712-1.854.661-.652 0-1.203-.356-1.704-.967-.451-.56-.652-1.12-.652-1.73 0-.61.251-1.12.702-1.578l.802.968c-.251.254-.401.56-.401.865 0 .305.1.56.301.865.25.305.551.458.902.458s.701-.153 1.102-.51c.351-.305.552-.61.602-1.017.05-.356-.05-.712-.351-1.018a3.264 3.264 0 0 0-.451-.407c-.15-.102-.351-.153-.602-.153l-.451-.966h.051zM168.098 101.102c-.853.712-1.604 1.069-2.256 1.12-.702 0-1.303-.255-1.855-.917-.501-.61-.701-1.272-.551-1.984.15-.713.602-1.374 1.403-2.036l1.003-.865c.852-.713 1.604-1.069 2.256-1.12.651-.05 1.303.255 1.804.916.551.662.752 1.324.601 1.985-.15.662-.601 1.323-1.403 2.036l-1.002.865zm.25-1.934c.551-.458.902-.865 1.003-1.272.15-.356.05-.713-.201-1.018-.25-.305-.601-.458-.952-.407-.351.05-.802.305-1.303.712l-1.304 1.12c-.551.458-.902.865-1.002 1.272-.151.356-.05.713.2 1.069.251.305.602.458.953.407.351-.051.802-.305 1.353-.763l1.303-1.12h-.05zM136.169 69.041l.701.61-.651.815-.702-.61-1.103 1.323-.952-.815 1.103-1.323-2.506-2.137.451-.611 5.814-1.832 1.003.865-3.158 3.817v-.102zm-2.506-2.137 1.503 1.272 2.055-2.443h-.2l-3.358 1.17zM141.632 73.062c-.701.865-1.403 1.374-2.055 1.526-.651.153-1.303 0-1.955-.56a2.25 2.25 0 0 1-.902-1.832c0-.661.401-1.424 1.053-2.29l.852-1.017c.702-.865 1.403-1.374 2.055-1.527.652-.153 1.303 0 1.955.56.651.56.952 1.17.902 1.832 0 .661-.401 1.425-1.053 2.239l-.852 1.018v.05zm-.05-1.934c.451-.56.702-1.018.802-1.425.05-.407-.05-.713-.401-.967-.301-.255-.651-.356-1.002-.204-.351.102-.752.407-1.203.967l-1.103 1.324c-.451.56-.702 1.017-.802 1.424-.05.408.05.713.401 1.018.301.255.652.356 1.003.204.35-.102.751-.458 1.202-.967l1.103-1.323v-.051zM103.488 44.257l.652.407c.35.204.651.255.952.204.301-.051.551-.255.702-.56.2-.305.25-.61.15-.865a1.324 1.324 0 0 0-.601-.713c-.301-.152-.602-.203-.853-.152-.3.05-.501.254-.651.509l-1.103-.662c.201-.356.451-.61.802-.763.351-.153.702-.255 1.103-.204.401 0 .802.153 1.203.407.651.407 1.052.865 1.253 1.425.2.56.1 1.12-.251 1.73-.15.306-.401.51-.752.662a1.906 1.906 0 0 1-1.052.153c.301.356.451.712.501 1.068 0 .357-.05.764-.251 1.12-.35.61-.802.967-1.403 1.069-.602.102-1.253 0-1.905-.407-.651-.357-1.052-.866-1.253-1.425-.2-.56-.15-1.17.151-1.73l1.102.66c-.15.306-.2.612-.1.866.1.305.301.56.601.713.351.203.652.254.953.203.301-.05.551-.254.752-.61.2-.357.25-.662.15-.968-.1-.305-.351-.56-.752-.814l-.651-.356.501-.865.05-.102zM111.157 50.16c-.551.967-1.153 1.578-1.754 1.833-.652.254-1.304.203-2.005-.204-.702-.407-1.103-.967-1.203-1.629-.101-.661.15-1.475.651-2.442l.652-1.17c.551-.968 1.153-1.578 1.754-1.833.602-.254 1.303-.204 2.005.204.702.407 1.103.967 1.203 1.628.1.662-.15 1.476-.652 2.392l-.651 1.17v.051zm-.401-1.882c.351-.611.551-1.12.551-1.527 0-.407-.2-.713-.551-.916-.351-.204-.702-.204-1.003 0-.3.152-.651.56-1.002 1.12l-.852 1.526c-.351.61-.552 1.12-.552 1.527 0 .407.201.712.552.916.351.203.702.203 1.002 0 .351-.204.652-.56 1.003-1.17l.852-1.527v.05zM70.256 33.824l-4.812-1.78.301-.815 3.308-1.73a6.067 6.067 0 0 0 1.103-.713c.25-.203.4-.458.501-.712.1-.357.15-.662 0-.916-.1-.306-.35-.458-.651-.611-.401-.153-.702-.153-1.003 0-.3.153-.501.458-.651.865l-1.203-.458c.15-.458.4-.814.701-1.069.301-.305.702-.458 1.153-.509.451-.05.902 0 1.353.153.702.255 1.153.61 1.454 1.12.25.509.3 1.069.1 1.68-.15.355-.35.712-.701 1.017-.351.305-.853.662-1.454.967l-2.406 1.272 3.308 1.222-.35.966-.05.051zM76.923 32.857c-.351 1.018-.852 1.73-1.404 2.138-.55.407-1.253.458-2.055.152-.751-.305-1.253-.763-1.453-1.425-.2-.661-.15-1.476.2-2.493l.451-1.273c.351-1.017.852-1.73 1.404-2.137.551-.356 1.253-.407 2.055-.153.802.306 1.253.764 1.454 1.425.2.662.15 1.476-.201 2.494l-.451 1.272zm-.702-1.781c.25-.662.351-1.221.25-1.578-.05-.407-.3-.661-.7-.814-.402-.152-.753-.102-1.003.153-.301.254-.552.661-.802 1.272l-.602 1.629c-.25.661-.35 1.221-.25 1.628.1.407.3.662.701.814.401.153.702.102 1.003-.152.3-.255.551-.662.802-1.323l.601-1.629zM32.413 23.8l-1.253-.204 1.052-6.107-1.955.305.2-1.069 3.108-.56h.15L32.414 23.8zM40.382 21.967c-.2 1.069-.551 1.883-1.052 2.341-.502.458-1.153.662-1.955.509-.802-.153-1.354-.509-1.705-1.12-.3-.61-.4-1.425-.2-2.493l.25-1.323c.201-1.07.552-1.883 1.053-2.341.502-.459 1.153-.611 1.955-.51.802.153 1.404.51 1.704 1.12.301.61.401 1.425.2 2.494l-.25 1.323zm-1.002-1.628c.1-.713.1-1.273 0-1.629-.1-.356-.401-.61-.802-.662-.401-.05-.752 0-1.003.306-.25.254-.45.763-.551 1.425l-.3 1.73c-.101.712-.101 1.272 0 1.628.1.357.4.611.851.662.401.051.702 0 .953-.305.25-.306.45-.764.55-1.476l.302-1.73v.05z"/>
        <path d="M-2.975 37.743c-109.57 0-198.74 90.535-198.74 201.782 0 111.247 89.17 201.782 198.74 201.782 109.57 0 198.74-90.535 198.74-201.782 0-111.247-89.17-201.782-198.74-201.782zm0 212.113-.902 10.331v179.746c-5.213 0-10.325-.254-15.438-.661l15.438-179.085v-10.331l.601-3.41.301 3.461.301-3.461.601 3.41v10.331l15.439 179.085c-5.113.407-10.226.661-15.439.661V260.187l-.902-10.331zm0-20.713.902-10.33V39.066c5.213 0 10.326.255 15.439.662L-2.073 218.813v10.33l-.601 3.41-.3-3.46-.302 3.46-.601-3.41v-10.33L-19.315 39.728c5.113-.407 10.225-.662 15.438-.662v179.747l.902 10.33zm19.9 5.853 171.071-46.514a218.3 218.3 0 0 1 3.358 15.318l-174.38 31.247-.05-.051zm174.68-29.466c.852 5.14 1.554 10.331 2.005 15.573L17.225 236.777l174.38-31.196v-.051zM16.473 233.215l166.411-61.476a184.528 184.528 0 0 1 4.661 14.962L16.523 233.215h-.05zm-.601-1.68 160.445-75.98c2.156 4.733 4.161 9.568 5.915 14.504l-166.41 61.476h.05zm-.752-1.628 153.328-89.873c2.556 4.529 4.912 9.16 7.168 13.893L15.17 229.907h-.05zm-.902-1.578 144.957-103.054c2.957 4.275 5.714 8.703 8.321 13.232L14.218 228.38v-.051zm-1.003-1.476L148.8 111.331c3.308 4.021 6.415 8.143 9.423 12.418L13.215 226.802v.051zm-1.153-1.374L137.221 98.405a205.13 205.13 0 0 1 10.426 11.552L12.062 225.479zm-1.253-1.272L124.59 86.547a204.492 204.492 0 0 1 11.378 10.586L10.809 224.207zm-1.353-1.17 101.5-147.228c4.211 3.003 8.271 6.21 12.23 9.568L9.406 223.037h.05zm-1.454-1.018L96.521 66.395a197.15 197.15 0 0 1 13.032 8.448L8.053 222.019h-.05zm-1.554-.916L81.283 58.201a196.04 196.04 0 0 1 13.684 7.278L6.448 221.154v-.051zm-1.603-.764L65.394 51.382a197.193 197.193 0 0 1 14.285 6.005L4.845 220.288v.051zm-1.655-.61 45.813-173.64a177.928 177.928 0 0 1 14.737 4.733L3.19 219.78v-.051zm-1.704-.458 30.776-177.05c5.113.917 10.125 2.087 15.087 3.41L1.536 219.322l-.05-.051zm-1.754-.306L15.17 39.881c5.163.458 10.275 1.17 15.338 2.035L-.218 218.965h-.05zm-5.313 0L-36.307 41.916c5.063-.865 10.175-1.577 15.338-2.035l15.438 179.084h-.05zm-1.755.306-45.813-173.69a209.623 209.623 0 0 1 15.088-3.41L-7.285 219.22l-.05.051zm-1.704.458L-69.589 50.771a177.926 177.926 0 0 1 14.736-4.733l45.813 173.64v.051zm-1.654.61L-85.528 57.438c4.661-2.188 9.423-4.224 14.285-6.005l60.55 168.957v-.051zm-1.604.764-88.518-155.675c4.461-2.596 9.022-4.987 13.684-7.278l74.834 162.902v.051zm-1.553.916L-115.353 74.843c4.211-3.003 8.571-5.802 13.032-8.448l88.518 155.624h-.05zm-1.454 1.018-113.781-137.66a203.76 203.76 0 0 1 12.23-9.567l101.5 147.227h.05zm-1.354 1.17L-141.816 97.133a204.14 204.14 0 0 1 11.378-10.586l113.78 137.66zm-1.253 1.272-135.584-115.522a205.13 205.13 0 0 1 10.426-11.552l125.158 127.074zm-1.152 1.374-145.008-103.054c2.957-4.274 6.115-8.396 9.423-12.417l135.585 115.522v-.051zm-1.003 1.476-153.278-89.873a201.068 201.068 0 0 1 8.321-13.232l144.957 103.054v.051zm-.902 1.578-160.446-75.98a201.435 201.435 0 0 1 7.168-13.893l153.328 89.873h-.05zm-.752 1.628-166.41-61.476a203.677 203.677 0 0 1 5.914-14.504l160.446 75.98h.05zm-.601 1.68-171.022-46.514a184.528 184.528 0 0 1 4.661-14.962l166.41 61.476h-.05zm-.452 1.73-174.38-31.247c.903-5.191 2.055-10.28 3.359-15.318l171.072 46.514-.05.051zm-.3 1.781-176.385-15.674c.451-5.242 1.153-10.433 2.005-15.573l174.38 31.196v.051zm-.15 1.781h-177.188c0-5.292.251-10.483.652-15.674l176.385 15.674h.15zm0 1.782-176.386 15.674c-.401-5.191-.651-10.382-.651-15.674h177.036zm.15 1.781-174.38 31.196c-.852-5.14-1.554-10.331-2.005-15.573l176.385-15.674v.051zm.3 1.781-171.071 46.514a218.303 218.303 0 0 1-3.359-15.318l174.38-31.247.05.051zm.452 1.73-166.411 61.476a184.651 184.651 0 0 1-4.661-14.962l171.021-46.514h.05zm.601 1.68-160.446 75.98c-2.155-4.733-4.16-9.568-5.914-14.504l166.41-61.476h-.05zm.752 1.628-153.328 89.873c-2.557-4.529-4.912-9.16-7.168-13.893l160.446-75.98h.05zm.902 1.578-144.957 103.054c-2.958-4.275-5.714-8.703-8.321-13.232l153.278-89.873v.051zm1.003 1.476L-154.65 367.465a206.012 206.012 0 0 1-9.423-12.418l145.008-103.054v-.05zm1.152 1.374L-143.07 380.391a205.13 205.13 0 0 1-10.426-11.552l135.584-115.522zm1.253 1.272-113.78 137.659a203.87 203.87 0 0 1-11.378-10.585l125.159-127.074zm1.354 1.17-101.5 147.227c-4.211-3.002-8.271-6.208-12.231-9.567l113.78-137.66h-.05zm1.454 1.018-88.519 155.624a196.965 196.965 0 0 1-13.032-8.448l101.5-147.176h.05zm1.553.916-74.834 162.902a196.108 196.108 0 0 1-13.684-7.278l88.518-155.675v.051zm1.604.764-60.55 168.957a197.282 197.282 0 0 1-14.284-6.005l74.834-162.902v-.05zm1.654.61-45.813 173.64a178.002 178.002 0 0 1-14.736-4.733l60.55-168.958v.051zm1.704.458L-38.11 436.574c-5.113-.916-10.125-2.086-15.088-3.409l45.813-173.691.05.051zm1.755.306L-21.02 438.915c-5.163-.458-10.276-1.17-15.338-2.035l30.726-177.049h.05zm5.313 0L30.458 436.88c-5.063.865-10.175 1.577-15.338 2.035L-.318 259.831h.05zm1.754-.306L47.3 433.216a209.716 209.716 0 0 1-15.087 3.409L1.436 259.576l.05-.051zm1.704-.458 60.55 168.958a178.383 178.383 0 0 1-14.737 4.733L3.19 259.118v-.051zm1.655-.61 74.834 162.901c-4.661 2.188-9.423 4.224-14.285 6.005L4.844 258.406v.051zm1.603-.764 88.519 155.675c-4.461 2.596-9.022 4.987-13.684 7.278L6.448 257.744v-.051zm1.554-.916 101.501 147.176c-4.211 3.003-8.572 5.802-13.032 8.448L7.951 256.777h.05zm1.454-1.018 113.78 137.66a202.875 202.875 0 0 1-12.23 9.567L9.506 255.759h-.05zm1.353-1.17 125.159 127.074a204.221 204.221 0 0 1-11.378 10.585L10.81 254.589zm1.253-1.272 135.585 115.522a205.13 205.13 0 0 1-10.426 11.552L12.062 253.317zm1.153-1.374 145.008 103.053c-2.958 4.275-6.115 8.397-9.423 12.418L13.215 251.892v.051zm1.003-1.476 153.278 89.873a201.203 201.203 0 0 1-8.321 13.231L14.218 250.518v-.051zm.902-1.578 160.446 75.98a201.435 201.435 0 0 1-7.168 13.893L15.07 248.889h.05zm.752-1.628 166.41 61.476a203.677 203.677 0 0 1-5.914 14.504l-160.446-75.98h-.05zm.601-1.68 171.022 46.514a184.26 184.26 0 0 1-4.662 14.962l-166.41-61.476h.05zm.451-1.73 174.38 31.247c-.902 5.191-2.055 10.28-3.358 15.318L16.874 243.902l.05-.051zm.301-1.781 176.385 15.674c-.451 5.242-1.153 10.433-2.005 15.573l-174.38-31.196v-.051zm.15-1.781h177.037c0 5.292-.251 10.483-.652 15.674L17.375 240.289zm0-1.782 176.385-15.674c.401 5.191.652 10.382.652 15.674H17.375z"/>
    </g>
    <defs>
        <clipPath id="mn1hck8h7a">
            <path fill="#fff" d="M0 0h242v230H0z"/>
        </clipPath>
    </defs>
</svg>
