<svg width="78" height="116" viewBox="0 0 78 116" fill="none" xmlns="http://www.w3.org/2000/svg">
    <g clip-path="url(#ap5b6mkfha)">
        <path d="M77.158 67.165c.148 3.742-8.769 11.188-8.769 11.188l2.932.62-.106.354C62.052 92.276 43.79 92.474 43.79 92.474l-.474.013-1.76-65.847.38.009 18.318-2.465.088-4.231-18.963-.042-.077-2.613c3.833-.96 6.667-4.407 6.667-8.512 0-4.854-3.96-8.782-8.816-8.782-4.856 0-8.815 3.928-8.815 8.782 0 4.075 2.792 7.5 6.574 8.487l-.06 2.625-18.727-.03-.088 4.168 18.561 2.529h.11l-1.417 65.972-1.1.021s-18.253-.21-27.436-13.147l-.093-.362 2.935-.616S.694 70.987.842 67.237c.11-2.718-2.729 10.838 1.447 17.357l1.599-3.181.406-.312s3.05 5.55 8.71 9.392c5.672 3.856 15.389 8.542 16.755 9.499 1.752 1.243 5.051 2.465 6.959 7.551 1.908 5.086 1.387 8.213 1.387 8.213s1.075.598 1.777-.08c0 0-.52-3.127 1.388-8.209 1.907-5.086 5.22-6.321 6.967-7.547 1.374-.96 11.078-5.65 16.751-9.502 5.673-3.843 8.719-9.385 8.719-9.385l.414.295 1.59 3.19c4.176-6.523 1.337-20.075 1.447-17.353zm-43.1-58.383c0-2.807 2.292-5.086 5.11-5.086 2.816 0 5.1 2.28 5.1 5.086 0 2.806-2.288 5.082-5.1 5.082-2.814 0-5.11-2.28-5.11-5.082z" fill="#fff"/>
    </g>
    <defs>
        <clipPath id="ap5b6mkfha">
            <path fill="#fff" d="M0 0h78v116H0z"/>
        </clipPath>
    </defs>
</svg>
