<svg width="490" height="479" viewBox="0 0 490 479" fill="none" xmlns="http://www.w3.org/2000/svg">
<g clip-path="url(#clip0_1376_6902)">
<path d="M159.815 1.81396L157.66 14.1295L169.238 9.85471L159.815 1.81396Z" fill="#131825" fill-opacity="0.2"/>
<path d="M330.235 477.236L332.34 464.92L320.812 469.195L330.235 477.236Z" fill="#131825" fill-opacity="0.2"/>
<path d="M84.8801 45.7329L86.9853 58.0485L96.4086 50.0077L84.8801 45.7329Z" fill="#131825" fill-opacity="0.2"/>
<path d="M405.17 433.317L403.015 421.001L393.591 429.042L405.17 433.317Z" fill="#131825" fill-opacity="0.2"/>
<path d="M29.2429 113.01L35.4081 123.85L41.5232 113.01H29.2429Z" fill="#131825" fill-opacity="0.2"/>
<path d="M460.757 365.988L454.642 355.148L448.477 365.988H460.757Z" fill="#131825" fill-opacity="0.2"/>
<path d="M-0.380127 195.606L9.09324 203.596L11.1984 191.332L-0.380127 195.606Z" fill="#131825" fill-opacity="0.2"/>
<path d="M490.38 283.444L480.957 275.403L478.802 287.719L490.38 283.444Z" fill="#131825" fill-opacity="0.2"/>
<path d="M-0.380127 283.444L11.1984 287.719L9.09324 275.403L-0.380127 283.444Z" fill="#131825" fill-opacity="0.2"/>
<path d="M490.38 195.606L478.802 191.332L480.957 203.596L490.38 195.606Z" fill="#131825" fill-opacity="0.2"/>
<path d="M29.2429 365.988H41.5232L35.4081 355.148L29.2429 365.988Z" fill="#131825" fill-opacity="0.2"/>
<path d="M460.757 113.01H448.477L454.642 123.85L460.757 113.01Z" fill="#131825" fill-opacity="0.2"/>
<path d="M84.8801 433.317L96.4086 429.042L86.9853 421.001L84.8801 433.317Z" fill="#131825" fill-opacity="0.2"/>
<path d="M405.17 45.7329L393.591 50.0077L403.015 58.0485L405.17 45.7329Z" fill="#131825" fill-opacity="0.2"/>
<path d="M159.815 477.236L169.238 469.195L157.66 464.92L159.815 477.236Z" fill="#131825" fill-opacity="0.2"/>
<path d="M330.235 1.81396L320.812 9.85471L332.34 14.1295L330.235 1.81396Z" fill="#131825" fill-opacity="0.2"/>
<path d="M245.025 442.427C134.803 442.427 45.1823 351.383 45.1823 239.525C45.1823 127.667 134.803 36.5728 245.025 36.5728C355.247 36.5728 444.868 127.616 444.868 239.474C444.868 351.332 355.197 442.376 245.025 442.376V442.427ZM245.025 40.186C136.808 40.186 48.741 129.601 48.741 239.474C48.741 349.348 136.808 438.763 245.025 438.763C353.242 438.763 441.309 349.348 441.309 239.474C441.309 129.601 353.242 40.186 245.025 40.186Z" fill="#131825" fill-opacity="0.2"/>
<path d="M245.025 476.422C116.358 476.422 11.6997 370.162 11.6997 239.525C11.6997 108.888 116.358 2.62842 245.025 2.62842C373.692 2.62842 478.35 108.888 478.35 239.525C478.35 370.162 373.692 476.422 245.025 476.422ZM245.025 4.76583C117.511 4.76583 13.8049 110.11 13.8049 239.525C13.8049 368.94 117.561 474.284 245.025 474.284C372.489 474.284 476.245 368.94 476.245 239.525C476.245 110.11 372.489 4.71494 245.025 4.71494V4.76583Z" fill="#131825" fill-opacity="0.2"/>
<path d="M245.025 478.865C115.004 478.865 9.24365 371.485 9.24365 239.474C9.24365 107.463 115.004 0.134766 245.025 0.134766C375.046 0.134766 480.807 107.514 480.807 239.525C480.807 371.536 375.046 478.915 245.025 478.915V478.865ZM245.025 1.0508C115.506 1.0508 10.1459 108.023 10.1459 239.525C10.1459 371.027 115.506 477.999 245.025 477.999C374.544 477.999 479.904 371.027 479.904 239.525C479.904 108.023 374.494 1.0508 245.025 1.0508Z" fill="#131825" fill-opacity="0.2"/>
<path d="M245.025 446.04C132.848 446.04 41.6234 353.419 41.6234 239.525C41.6234 125.632 132.848 33.0103 245.025 33.0103C357.202 33.0103 448.427 125.632 448.427 239.525C448.427 353.419 357.202 446.04 245.025 446.04ZM245.025 36.6235C134.803 36.6235 45.1822 127.667 45.1822 239.525C45.1822 351.383 134.853 442.427 245.025 442.427C355.197 442.427 444.868 351.383 444.868 239.525C444.868 127.667 355.197 36.6235 245.025 36.6235Z" fill="#131825" fill-opacity="0.2"/>
<path d="M456.396 239.983V239.067H450.181C450.181 227.057 449.128 215.25 447.174 203.8L453.289 202.68L453.138 201.815L447.023 202.883C444.968 191.128 441.911 179.677 438.001 168.685L443.815 166.547L443.515 165.682L437.7 167.82C433.64 156.675 428.678 145.937 422.914 135.759L428.327 132.603L427.876 131.84L422.463 135.046C416.598 124.817 409.882 115.097 402.413 106.089L407.275 101.967L406.724 101.255L401.862 105.377C394.343 96.369 386.123 87.972 377.201 80.3384L381.261 75.402L380.559 74.8422L376.499 79.7786C367.577 72.1959 358.054 65.3765 347.979 59.4223L351.137 53.9261L350.385 53.4681L347.277 58.9643C337.252 53.1119 326.676 48.0737 315.699 43.9515L317.804 38.0482L316.952 37.7428L314.847 43.6462C304.02 39.6767 292.743 36.5723 281.164 34.4858L282.217 28.2771L281.365 28.1245L280.262 34.3331C268.984 32.3484 257.355 31.2797 245.526 31.2797V24.9692H244.624V31.2797C232.795 31.2797 221.166 32.3484 209.888 34.3331L208.786 28.1245L207.934 28.2771L208.986 34.4858C197.408 36.5723 186.13 39.6767 175.303 43.6462L173.198 37.7428L172.346 38.0482L174.451 43.9515C163.474 48.0737 152.898 53.1119 142.873 58.9643L139.765 53.4681L139.014 53.9261L142.171 59.4223C132.097 65.3765 122.523 72.1959 113.651 79.7786L109.591 74.8422L108.889 75.402L112.949 80.3384C104.077 87.972 95.807 96.3181 88.2885 105.377L83.4265 101.255L82.8752 101.967L87.7372 106.089C80.2687 115.148 73.5522 124.817 67.6877 135.046L62.2744 131.84L61.8232 132.603L67.2366 135.759C61.4724 145.937 56.5101 156.675 52.4501 167.82L46.6358 165.682L46.3351 166.547L52.1494 168.685C48.2398 179.677 45.1822 191.128 43.1271 202.883L37.0121 201.815L36.8617 202.68L42.9768 203.8C41.022 215.25 39.9694 227.057 39.9694 239.067H33.754V239.983H39.9694C39.9694 251.993 41.022 263.8 42.9768 275.25L36.8617 276.37L37.0121 277.235L43.1271 276.166C45.1822 287.922 48.2398 299.372 52.1494 310.365L46.3351 312.502L46.6358 313.367L52.4501 311.23C56.5101 322.375 61.4724 333.113 67.2366 343.291L61.8232 346.446L62.2744 347.21L67.6877 344.004C73.5522 354.233 80.2687 363.953 87.7372 372.961L82.8752 377.083L83.4265 377.795L88.2885 373.673C95.807 382.681 104.027 391.078 112.949 398.711L108.889 403.648L109.591 404.207L113.651 399.271C122.573 406.854 132.097 413.673 142.171 419.627L139.014 425.124L139.765 425.582L142.873 420.085C152.898 425.938 163.474 430.976 174.451 435.098L172.346 441.002L173.198 441.307L175.303 435.404C186.13 439.373 197.408 442.477 208.986 444.564L207.934 450.773L208.786 450.925L209.888 444.717C221.166 446.701 232.795 447.77 244.624 447.77V454.08H245.526V447.77C257.355 447.77 268.984 446.701 280.262 444.717L281.365 450.925L282.217 450.773L281.164 444.564C292.743 442.477 304.02 439.373 314.847 435.404L316.952 441.307L317.804 441.002L315.699 435.098C326.676 430.976 337.252 425.938 347.277 420.085L350.385 425.582L351.137 425.124L347.979 419.627C358.054 413.673 367.627 406.854 376.499 399.271L380.559 404.207L381.261 403.648L377.201 398.711C386.073 391.078 394.343 382.732 401.862 373.673L406.724 377.795L407.275 377.083L402.413 372.961C409.882 363.902 416.598 354.233 422.463 344.004L427.876 347.21L428.327 346.446L422.914 343.291C428.678 333.113 433.64 322.375 437.7 311.23L443.515 313.367L443.815 312.502L438.001 310.365C441.911 299.372 444.968 287.922 447.023 276.166L453.138 277.235L453.289 276.37L447.174 275.25C449.128 263.8 450.181 251.993 450.181 239.983H456.396ZM446.271 275.098C446.221 275.403 446.171 275.708 446.121 275.963C444.066 287.668 441.008 299.067 437.099 310.009C436.998 310.314 436.898 310.568 436.798 310.874C432.788 321.968 427.826 332.655 422.062 342.782C421.911 343.037 421.761 343.291 421.61 343.546C415.746 353.724 409.08 363.393 401.661 372.401C401.461 372.655 401.26 372.859 401.11 373.113C393.642 382.121 385.421 390.467 376.549 398.05C376.349 398.253 376.098 398.457 375.848 398.61C366.976 406.141 357.502 412.91 347.428 418.864C347.177 419.017 346.926 419.169 346.676 419.322C336.701 425.175 326.175 430.162 315.248 434.284C314.947 434.386 314.697 434.488 314.396 434.589C303.62 438.559 292.392 441.663 280.863 443.75C280.563 443.801 280.262 443.851 280.011 443.902C268.784 445.887 257.205 446.956 245.426 446.956H244.975H244.524C232.745 446.956 221.166 445.887 209.939 443.902C209.638 443.851 209.337 443.801 209.086 443.75C197.558 441.663 186.33 438.559 175.554 434.589C175.253 434.488 175.002 434.386 174.702 434.284C163.775 430.213 153.249 425.175 143.274 419.322C143.023 419.169 142.773 419.017 142.522 418.864C132.498 412.91 122.974 406.141 114.102 398.61C113.852 398.406 113.651 398.202 113.4 398.05C104.529 390.467 96.3083 382.121 88.8399 373.113C88.6394 372.91 88.4389 372.655 88.2885 372.401C80.8702 363.393 74.2038 353.775 68.3393 343.546C68.1889 343.291 68.0386 343.037 67.8882 342.782C62.124 332.655 57.2119 321.968 53.1519 310.874C53.0516 310.568 52.9514 310.314 52.8511 310.009C48.9415 299.067 45.8839 287.668 43.8289 275.963C43.7788 275.657 43.7286 275.352 43.6785 275.098C41.7237 263.698 40.6711 251.942 40.6711 239.983V239.525V239.067C40.6711 227.108 41.7237 215.352 43.6785 203.952C43.7286 203.647 43.7788 203.342 43.8289 203.087C45.8839 191.382 48.9415 179.983 52.8511 169.041C52.9514 168.736 53.0516 168.481 53.1519 168.176C57.1617 157.082 62.124 146.395 67.8882 136.267C68.0386 136.013 68.1889 135.759 68.3393 135.504C74.2038 125.326 80.8702 115.657 88.2885 106.649C88.489 106.395 88.6895 106.191 88.8399 105.937C96.3083 96.9288 104.529 88.5827 113.4 81C113.601 80.7965 113.852 80.5929 114.102 80.4402C122.974 72.9084 132.447 66.1399 142.522 60.1857C142.773 60.033 143.023 59.8803 143.274 59.7277C153.249 53.8752 163.775 48.8879 174.702 44.7658C175.002 44.664 175.253 44.5622 175.554 44.4604C186.33 40.4909 197.558 37.3866 209.086 35.3001C209.387 35.2492 209.688 35.1983 209.939 35.1474C221.166 33.1627 232.745 32.0939 244.524 32.0939H244.975H245.426C257.205 32.0939 268.784 33.1627 280.011 35.1474C280.312 35.1983 280.613 35.2492 280.863 35.3001C292.392 37.3866 303.62 40.4909 314.396 44.4604C314.697 44.5622 314.947 44.664 315.248 44.7658C326.175 48.837 336.701 53.8752 346.676 59.7277C346.926 59.8803 347.177 60.033 347.428 60.1857C357.452 66.1399 366.976 72.9084 375.848 80.4402C376.098 80.6438 376.299 80.8473 376.549 81C385.421 88.5827 393.642 96.9288 401.11 105.937C401.31 106.14 401.511 106.395 401.661 106.649C409.08 115.657 415.746 125.275 421.61 135.504C421.761 135.759 421.911 136.013 422.062 136.267C427.826 146.395 432.738 157.082 436.798 168.176C436.898 168.481 436.998 168.736 437.099 169.041C441.008 179.983 444.066 191.382 446.121 203.087C446.171 203.392 446.221 203.698 446.271 203.952C448.226 215.352 449.279 227.108 449.279 239.067V239.525V239.983C449.279 251.942 448.226 263.698 446.271 275.098Z" fill="#131825" fill-opacity="0.2"/>
<path d="M247.481 17.5903C247.481 18.7099 247.281 19.5242 246.88 20.084C246.479 20.6438 245.827 20.9491 245.025 20.9491C244.223 20.9491 243.572 20.6947 243.171 20.1349C242.77 19.5751 242.519 18.7608 242.519 17.6921V16.3689C242.519 15.2493 242.719 14.4351 243.12 13.8753C243.521 13.3155 244.173 13.061 244.975 13.061C245.777 13.061 246.429 13.3155 246.83 13.8753C247.231 14.4351 247.431 15.1985 247.431 16.318V17.6412L247.481 17.5903ZM246.228 16.1654C246.228 15.4529 246.128 14.8931 245.927 14.5878C245.727 14.2824 245.426 14.0789 245.025 14.0789C244.624 14.0789 244.323 14.2315 244.123 14.5369C243.922 14.8422 243.822 15.3511 243.822 16.0127V17.743C243.822 18.4555 243.922 19.0153 244.123 19.3715C244.323 19.7277 244.624 19.8804 245.075 19.8804C245.526 19.8804 245.777 19.7277 245.977 19.3715C246.178 19.0153 246.278 18.5572 246.278 17.8448V16.1145L246.228 16.1654Z" fill="#131825" fill-opacity="0.2"/>
<path d="M199.964 20.9997L200.716 20.8471C201.117 20.7962 201.367 20.6435 201.568 20.389C201.768 20.1346 201.818 19.8292 201.768 19.473C201.718 19.1168 201.568 18.8623 201.317 18.6588C201.117 18.5061 200.816 18.4552 200.415 18.5061C200.064 18.557 199.814 18.7096 199.663 18.9641C199.463 19.2186 199.413 19.473 199.463 19.7784L198.21 19.9819C198.159 19.5748 198.21 19.2186 198.31 18.8623C198.46 18.5061 198.711 18.2007 199.012 17.9463C199.362 17.6918 199.713 17.5392 200.164 17.4374C200.916 17.2847 201.518 17.4374 202.019 17.6918C202.52 17.9972 202.821 18.5061 202.921 19.1677C202.971 19.5239 202.921 19.8292 202.771 20.1855C202.62 20.5417 202.37 20.7962 202.069 20.9997C202.52 21.0506 202.871 21.2542 203.122 21.5086C203.372 21.7631 203.573 22.1193 203.623 22.5265C203.723 23.188 203.623 23.7987 203.222 24.2567C202.821 24.7657 202.27 25.071 201.518 25.1728C200.816 25.3255 200.164 25.1728 199.663 24.9183C199.162 24.613 198.811 24.155 198.711 23.4934L199.964 23.2898C200.014 23.6461 200.164 23.8496 200.415 24.0532C200.666 24.2059 200.966 24.2567 201.367 24.2059C201.768 24.155 202.019 24.0023 202.219 23.7478C202.42 23.4934 202.47 23.188 202.37 22.7809C202.32 22.3738 202.119 22.1193 201.869 21.9158C201.618 21.7631 201.217 21.7122 200.766 21.7631L200.014 21.9158L199.864 20.8979L199.964 20.9997Z" fill="#131825" fill-opacity="0.2"/>
<path d="M204.926 20.7457L204.676 16.878L208.685 16.1655L208.886 17.2342L205.929 17.7431L206.029 19.5752C206.33 19.3208 206.731 19.1172 207.132 19.0663C207.833 18.9136 208.435 19.0663 208.886 19.4734C209.337 19.8806 209.688 20.4404 209.788 21.2546C209.939 22.018 209.788 22.6795 209.437 23.1885C209.086 23.7483 208.535 24.0536 207.733 24.2063C207.031 24.3081 206.43 24.2063 205.929 23.9009C205.427 23.5956 205.077 23.0867 204.926 22.476L206.129 22.2724C206.229 22.6287 206.43 22.8831 206.68 23.0358C206.931 23.1885 207.232 23.2393 207.583 23.1885C207.984 23.1376 208.234 22.934 208.385 22.6287C208.535 22.3233 208.585 21.9162 208.485 21.4582C208.385 21.0002 208.234 20.6439 207.934 20.4404C207.633 20.2368 207.282 20.135 206.881 20.2368C206.68 20.2368 206.48 20.3386 206.33 20.4404C206.179 20.5421 206.029 20.6948 205.878 20.8984H204.826L204.926 20.7457Z" fill="#131825" fill-opacity="0.2"/>
<path d="M215.502 19.4224C215.703 20.4911 215.653 21.3562 215.352 22.0178C215.051 22.6285 214.5 23.0356 213.648 23.1883C212.846 23.3409 212.194 23.1883 211.693 22.7303C211.192 22.2722 210.841 21.5089 210.64 20.4402L210.39 19.117C210.189 18.0483 210.239 17.1832 210.59 16.5725C210.891 15.9618 211.442 15.5547 212.294 15.402C213.096 15.2493 213.748 15.402 214.249 15.86C214.75 16.318 215.101 17.0814 215.302 18.1501L215.552 19.4732L215.502 19.4224ZM213.999 18.2519C213.898 17.5394 213.698 17.0305 213.447 16.7251C213.197 16.4198 212.846 16.318 212.445 16.3689C212.044 16.4198 211.743 16.6743 211.643 16.9796C211.492 17.3358 211.492 17.8447 211.643 18.5063L211.943 20.2366C212.044 20.9491 212.244 21.458 212.495 21.7633C212.745 22.0687 213.096 22.1705 213.497 22.1196C213.898 22.0687 214.149 21.8142 214.299 21.458C214.45 21.1018 214.45 20.5928 214.299 19.8804L213.999 18.1501V18.2519Z" fill="#131825" fill-opacity="0.2"/>
<path d="M163.173 32.247L163.875 31.9925C164.226 31.8399 164.476 31.6363 164.627 31.3819C164.777 31.1274 164.777 30.8221 164.627 30.4658C164.527 30.1096 164.326 29.906 164.075 29.7534C163.825 29.6007 163.524 29.6516 163.173 29.7534C162.873 29.8551 162.622 30.0587 162.472 30.3132C162.321 30.5676 162.321 30.873 162.472 31.1783L161.269 31.6363C161.118 31.2801 161.118 30.873 161.218 30.5167C161.319 30.1605 161.469 29.8042 161.77 29.4989C162.071 29.1936 162.421 28.99 162.822 28.8373C163.524 28.5829 164.176 28.532 164.677 28.7864C165.228 28.99 165.579 29.448 165.83 30.0587C165.93 30.364 165.93 30.7203 165.83 31.0765C165.73 31.4328 165.529 31.7381 165.278 31.9925C165.73 31.9925 166.08 32.0943 166.381 32.2979C166.682 32.5015 166.933 32.8068 167.083 33.2139C167.334 33.8755 167.283 34.4353 166.983 34.9951C166.682 35.5549 166.181 35.962 165.479 36.2165C164.777 36.4709 164.176 36.4709 163.574 36.2674C163.023 36.0638 162.622 35.6567 162.371 35.046L163.574 34.588C163.674 34.8933 163.875 35.1478 164.176 35.2496C164.476 35.3513 164.777 35.3513 165.128 35.2496C165.479 35.0969 165.73 34.8933 165.88 34.6389C166.03 34.3844 166.03 34.0282 165.88 33.6719C165.73 33.3157 165.529 33.0613 165.228 32.9086C164.928 32.8068 164.577 32.8068 164.126 32.9595L163.424 33.2139L163.073 32.247H163.173Z" fill="#131825" fill-opacity="0.2"/>
<path d="M172.095 30.7712L172.997 30.4659L173.348 31.4328L172.446 31.7381L172.997 33.3666L171.794 33.8246L171.193 32.1961L168.135 33.3157L167.835 32.6033L169.138 26.5982L170.391 26.1401L172.045 30.7712H172.095ZM169.038 31.8908L170.892 31.1783L169.79 28.1758V28.3793L168.988 31.8908H169.038Z" fill="#131825" fill-opacity="0.2"/>
<path d="M178.21 27.9722C178.561 28.99 178.661 29.8552 178.461 30.5168C178.26 31.1783 177.759 31.6872 177.007 31.9417C176.256 32.247 175.554 32.1962 175.002 31.789C174.451 31.4328 173.95 30.7203 173.599 29.7025L173.148 28.4302C172.797 27.4124 172.697 26.5473 172.897 25.8857C173.098 25.2241 173.599 24.7661 174.351 24.4607C175.153 24.1554 175.804 24.2063 176.356 24.5625C176.907 24.9188 177.408 25.6312 177.759 26.5982L178.21 27.8704V27.9722ZM176.556 27.0562C176.306 26.3946 176.055 25.9366 175.754 25.6821C175.454 25.4277 175.103 25.3768 174.702 25.5295C174.301 25.6821 174.1 25.9366 174 26.2928C173.95 26.6491 174 27.158 174.2 27.8195L174.802 29.448C175.053 30.1096 175.303 30.5676 175.604 30.873C175.905 31.1274 176.256 31.1783 176.657 31.0257C177.057 30.873 177.258 30.6185 177.358 30.2623C177.458 29.9061 177.358 29.3972 177.108 28.7356L176.506 27.1071L176.556 27.0562Z" fill="#131825" fill-opacity="0.2"/>
<path d="M129.089 49.906L129.741 49.4989C130.092 49.2953 130.292 49.0409 130.392 48.7864C130.493 48.4811 130.442 48.1757 130.242 47.8704C130.041 47.5651 129.841 47.3615 129.59 47.2597C129.34 47.1579 129.039 47.2597 128.688 47.4124C128.387 47.5651 128.187 47.8195 128.087 48.074C127.986 48.3793 128.037 48.6338 128.187 48.9391L127.084 49.6007C126.884 49.2445 126.783 48.8882 126.834 48.532C126.834 48.1249 126.984 47.7686 127.184 47.4633C127.435 47.107 127.736 46.8526 128.137 46.5981C128.788 46.191 129.39 46.0892 129.941 46.191C130.493 46.2928 130.944 46.649 131.295 47.2597C131.445 47.5651 131.545 47.8704 131.495 48.2775C131.495 48.6338 131.345 48.99 131.094 49.2953C131.545 49.1936 131.896 49.2953 132.247 49.3971C132.598 49.4989 132.848 49.8042 133.099 50.2114C133.45 50.8221 133.5 51.3819 133.3 51.9926C133.099 52.6032 132.648 53.0613 131.996 53.4684C131.345 53.8246 130.743 53.9773 130.142 53.8755C129.54 53.7737 129.089 53.4175 128.738 52.8577L129.841 52.1961C129.991 52.5015 130.242 52.6541 130.543 52.7559C130.843 52.8068 131.144 52.7559 131.495 52.5524C131.846 52.3488 132.046 52.0943 132.147 51.789C132.247 51.4837 132.147 51.1783 131.996 50.8221C131.796 50.4658 131.545 50.2623 131.244 50.2114C130.944 50.1605 130.593 50.2114 130.192 50.4658L129.54 50.8221L129.039 49.9569L129.089 49.906Z" fill="#131825" fill-opacity="0.2"/>
<path d="M134.302 46.8523L134.954 46.4452C135.305 46.2416 135.505 45.9872 135.605 45.7327C135.706 45.4274 135.655 45.122 135.455 44.8167C135.254 44.5113 135.054 44.3078 134.803 44.206C134.553 44.1042 134.252 44.206 133.901 44.3587C133.6 44.5113 133.4 44.7658 133.3 45.0203C133.199 45.3256 133.249 45.5801 133.4 45.8854L132.297 46.547C132.097 46.1907 131.996 45.8345 132.046 45.4783C132.046 45.0712 132.197 44.7149 132.397 44.4096C132.648 44.0533 132.949 43.7989 133.35 43.5444C134.001 43.1373 134.603 43.0355 135.154 43.1373C135.706 43.2391 136.157 43.5953 136.507 44.206C136.658 44.5114 136.758 44.8167 136.708 45.2238C136.708 45.5801 136.558 45.9363 136.307 46.2416C136.758 46.1399 137.109 46.2416 137.46 46.3434C137.811 46.4452 138.061 46.7505 138.312 47.1577C138.663 47.7684 138.713 48.3282 138.512 48.9388C138.312 49.5495 137.861 50.0076 137.209 50.4147C136.558 50.7709 135.956 50.9236 135.355 50.8218C134.753 50.72 134.302 50.3638 133.951 49.804L135.054 49.1424C135.204 49.4478 135.455 49.6004 135.756 49.7022C136.056 49.7531 136.357 49.7022 136.708 49.4986C137.059 49.2951 137.259 49.0406 137.36 48.7353C137.46 48.4299 137.36 48.1246 137.209 47.7684C137.009 47.4121 136.758 47.2086 136.457 47.1577C136.157 47.1068 135.806 47.1577 135.405 47.4121L134.753 47.7684L134.252 46.9032L134.302 46.8523Z" fill="#131825" fill-opacity="0.2"/>
<path d="M143.174 43.0357C143.725 44.0026 143.976 44.8169 143.876 45.5294C143.775 46.2418 143.425 46.8016 142.673 47.2088C141.971 47.6159 141.269 47.7177 140.668 47.4123C140.016 47.1579 139.465 46.5472 138.913 45.6311L138.262 44.4606C137.71 43.4937 137.46 42.6795 137.56 42.0179C137.66 41.3563 138.061 40.7965 138.763 40.3385C139.465 39.9314 140.167 39.8296 140.768 40.084C141.369 40.3385 141.971 40.9492 142.522 41.8652L143.174 43.0357ZM141.369 42.425C141.019 41.8143 140.668 41.4072 140.317 41.2036C139.966 41.0001 139.615 41.0001 139.264 41.2036C138.913 41.4072 138.713 41.7125 138.713 42.0688C138.713 42.425 138.863 42.9339 139.164 43.4937L140.016 45.0205C140.367 45.6311 140.718 46.0383 141.069 46.2418C141.42 46.4454 141.77 46.4454 142.121 46.2418C142.472 46.0383 142.673 45.7329 142.673 45.3767C142.673 45.0204 142.522 44.5115 142.171 43.9008L141.319 42.3741L141.369 42.425Z" fill="#131825" fill-opacity="0.2"/>
<path d="M98.3133 73.1121L98.9148 72.6032C99.2155 72.3488 99.3659 72.0434 99.416 71.789C99.416 71.4836 99.416 71.1783 99.1153 70.9238C98.8646 70.6185 98.614 70.4658 98.3634 70.4658C98.1128 70.4658 97.8121 70.5676 97.5113 70.822C97.2607 71.0256 97.1103 71.28 97.0602 71.5854C97.0101 71.8907 97.0602 72.1452 97.3108 72.3996L96.3585 73.2139C96.1079 72.9085 95.9575 72.5523 95.9074 72.1961C95.8572 71.8398 95.9074 71.4327 96.1079 71.0765C96.2582 70.7202 96.559 70.364 96.9098 70.0587C97.5113 69.5498 98.0627 69.3462 98.6642 69.3462C99.2155 69.3462 99.7669 69.6515 100.168 70.1604C100.368 70.4149 100.519 70.7202 100.519 71.1274C100.519 71.4836 100.519 71.8398 100.318 72.1961C100.719 72.0434 101.12 71.9925 101.471 72.0943C101.822 72.1961 102.173 72.3996 102.423 72.7559C102.875 73.2648 103.025 73.8755 102.925 74.4862C102.824 75.0969 102.474 75.6567 101.922 76.1656C101.371 76.6236 100.769 76.878 100.168 76.878C99.5664 76.878 99.0652 76.6236 98.614 76.1147L99.5664 75.3004C99.7669 75.5549 100.017 75.7075 100.368 75.7075C100.669 75.7075 100.97 75.6058 101.271 75.3513C101.571 75.0969 101.722 74.7915 101.772 74.4862C101.772 74.1808 101.722 73.8755 101.471 73.5701C101.22 73.2648 100.92 73.1121 100.619 73.0612C100.318 73.0612 99.9674 73.2139 99.6165 73.5192L99.0652 74.0281L98.4135 73.2648L98.3133 73.1121Z" fill="#131825" fill-opacity="0.2"/>
<path d="M108.539 70.1605L104.629 73.4684L104.078 72.8068L104.228 69.0409C104.228 68.4811 104.228 68.074 104.178 67.7178C104.128 67.4124 104.027 67.158 103.827 66.9544C103.576 66.6491 103.326 66.4964 103.025 66.4964C102.724 66.4964 102.423 66.5473 102.173 66.7508C101.872 67.0053 101.672 67.3106 101.672 67.6669C101.672 68.0231 101.772 68.3285 102.073 68.6847L101.12 69.4989C100.82 69.1427 100.619 68.7356 100.569 68.3285C100.469 67.9213 100.569 67.4633 100.719 67.0562C100.87 66.6491 101.17 66.2928 101.571 65.9366C102.123 65.4786 102.674 65.2241 103.276 65.2241C103.827 65.2241 104.328 65.4786 104.729 65.9875C104.98 66.2928 105.13 66.6491 105.23 67.1071C105.331 67.5651 105.381 68.1758 105.331 68.8883L105.18 71.6364L107.887 69.3463L108.539 70.1096V70.1605Z" fill="#131825" fill-opacity="0.2"/>
<path d="M110.995 63.8502C111.696 64.7154 112.047 65.4787 112.097 66.1403C112.097 66.8528 111.847 67.4635 111.195 68.0233C110.594 68.5831 109.942 68.7357 109.24 68.5831C108.589 68.4304 107.887 67.9724 107.235 67.1581L106.383 66.1403C105.682 65.2752 105.331 64.5118 105.281 63.8502C105.23 63.1886 105.531 62.5271 106.183 62.0182C106.834 61.4584 107.486 61.2548 108.138 61.4075C108.789 61.5601 109.441 62.0182 110.143 62.8324L110.995 63.8502ZM109.14 63.5958C108.689 63.036 108.288 62.6797 107.887 62.578C107.536 62.4253 107.185 62.5271 106.834 62.7815C106.534 63.036 106.383 63.3922 106.433 63.7485C106.483 64.1047 106.734 64.5627 107.135 65.0716L108.238 66.3948C108.689 66.9546 109.09 67.3108 109.491 67.4126C109.892 67.5144 110.193 67.4635 110.543 67.209C110.844 66.9546 110.995 66.6492 110.944 66.2421C110.894 65.8859 110.644 65.4278 110.193 64.868L109.09 63.5449L109.14 63.5958Z" fill="#131825" fill-opacity="0.2"/>
<path d="M72.0987 101.662L72.5999 101.051C72.8506 100.746 72.9508 100.441 72.9508 100.135C72.9508 99.83 72.8004 99.5756 72.4997 99.3211C72.1989 99.0667 71.9483 98.9649 71.6977 99.0158C71.397 99.0158 71.1464 99.1684 70.8957 99.4738C70.6952 99.7282 70.595 100.034 70.595 100.339C70.595 100.644 70.7454 100.899 70.996 101.102L70.194 102.069C69.8933 101.815 69.6928 101.509 69.5925 101.153C69.4923 100.797 69.4923 100.39 69.5925 99.9827C69.6928 99.5756 69.8933 99.2193 70.194 98.8631C70.6952 98.2524 71.1965 97.9471 71.798 97.8453C72.3994 97.7435 72.9007 97.9471 73.452 98.3542C73.7027 98.5577 73.9032 98.8631 74.0034 99.2193C74.1036 99.5756 74.1036 99.9318 74.0034 100.339C74.4044 100.084 74.7553 100.034 75.1061 100.034C75.457 100.034 75.8078 100.237 76.1587 100.492C76.6599 100.95 76.9607 101.459 76.9607 102.12C76.9607 102.731 76.7101 103.341 76.259 103.952C75.8078 104.512 75.2565 104.868 74.655 104.97C74.0535 105.072 73.5022 104.97 73.0009 104.512L73.8029 103.545C74.0535 103.749 74.3543 103.85 74.655 103.799C74.9557 103.799 75.2064 103.596 75.457 103.291C75.7076 102.985 75.8078 102.68 75.8078 102.375C75.8078 102.069 75.6575 101.764 75.3066 101.509C75.0059 101.255 74.7051 101.153 74.3543 101.204C74.0034 101.255 73.7528 101.459 73.452 101.815L72.9508 102.375L72.1989 101.713L72.0987 101.662Z" fill="#131825" fill-opacity="0.2"/>
<path d="M80.6197 98.2523L79.8177 99.2193L75.1562 95.2498L74.4544 97.1327L73.6525 96.4203L74.7051 93.4177L74.8053 93.3159L80.6197 98.3032V98.2523Z" fill="#131825" fill-opacity="0.2"/>
<path d="M83.0257 90.3133C83.8778 91.0258 84.379 91.7383 84.5294 92.3999C84.6798 93.0614 84.5294 93.723 83.978 94.3846C83.4267 95.0462 82.8252 95.3006 82.1736 95.3006C81.4719 95.3006 80.7701 94.8935 79.918 94.2319L78.9156 93.3668C78.0635 92.6543 77.5622 91.9418 77.4118 91.2803C77.2615 90.6187 77.4118 89.9571 77.9632 89.2955C78.5146 88.6339 79.1161 88.3286 79.7677 88.3795C80.4193 88.3795 81.1711 88.7866 82.0232 89.4482L83.0257 90.3133ZM81.121 90.3642C80.5696 89.9062 80.1185 89.6518 79.7175 89.55C79.3165 89.4991 79.0158 89.6009 78.7652 89.9571C78.5146 90.2624 78.4143 90.6187 78.5647 90.9749C78.6649 91.3311 79.0158 91.7383 79.517 92.1963L80.8203 93.3159C81.3716 93.7739 81.8227 94.0284 82.2237 94.1301C82.6247 94.181 82.9254 94.0793 83.2262 93.723C83.4768 93.4177 83.5771 93.0614 83.4267 92.7052C83.3264 92.349 82.9756 91.9418 82.4743 91.4838L81.1711 90.3642H81.121Z" fill="#131825" fill-opacity="0.2"/>
<path d="M51.1971 134.079L51.5981 133.418C51.7986 133.062 51.8487 132.756 51.7986 132.451C51.7484 132.146 51.5479 131.891 51.2472 131.738C50.9465 131.535 50.6457 131.484 50.3951 131.586C50.1445 131.637 49.8939 131.84 49.6934 132.196C49.543 132.502 49.4929 132.807 49.543 133.062C49.5931 133.367 49.7435 133.57 50.0442 133.723L49.3926 134.843C49.0418 134.639 48.7911 134.385 48.6408 134.029C48.4904 133.672 48.3902 133.316 48.4403 132.909C48.4904 132.502 48.5907 132.095 48.8413 131.688C49.2423 131.026 49.6934 130.619 50.2447 130.415C50.7961 130.212 51.3474 130.313 51.9489 130.67C52.2497 130.822 52.4502 131.077 52.6005 131.433C52.7509 131.789 52.801 132.146 52.7509 132.502C53.1018 132.196 53.4526 132.044 53.8035 131.993C54.1544 131.993 54.5554 132.044 54.9062 132.247C55.5077 132.604 55.8586 133.062 55.9588 133.672C56.0591 134.283 55.9588 134.945 55.5578 135.606C55.207 136.268 54.7057 136.675 54.1544 136.878C53.603 137.082 53.0015 137.031 52.4502 136.726L53.1018 135.606C53.4025 135.759 53.7033 135.81 53.9539 135.708C54.2546 135.606 54.5052 135.403 54.6556 135.097C54.8561 134.741 54.9062 134.436 54.8561 134.13C54.806 133.825 54.6055 133.57 54.2546 133.367C53.9038 133.163 53.603 133.112 53.3023 133.214C53.0015 133.316 52.7509 133.57 52.5003 133.978L52.1494 134.639L51.2973 134.13L51.1971 134.079Z" fill="#131825" fill-opacity="0.2"/>
<path d="M57.0115 126.294C57.9638 126.853 58.5653 127.464 58.866 128.075C59.1167 128.736 59.0665 129.398 58.6655 130.11C58.2645 130.823 57.7132 131.23 57.0616 131.332C56.41 131.433 55.608 131.179 54.6556 130.67L53.5028 130.009C52.5505 129.449 51.949 128.838 51.6984 128.227C51.4477 127.617 51.4979 126.904 51.8988 126.192C52.2998 125.479 52.8512 125.072 53.5028 124.97C54.1544 124.869 54.9564 125.123 55.8586 125.632L57.0115 126.294ZM55.1569 126.701C54.5554 126.344 54.0542 126.141 53.6532 126.141C53.2522 126.141 52.9514 126.344 52.7509 126.701C52.5505 127.057 52.5505 127.413 52.7509 127.718C52.9013 128.024 53.3023 128.38 53.8537 128.736L55.3574 129.601C55.9589 129.958 56.4601 130.161 56.8611 130.161C57.2621 130.161 57.5628 129.958 57.7633 129.601C57.9638 129.245 57.9638 128.889 57.7633 128.584C57.5628 128.227 57.2119 127.922 56.6105 127.566L55.1068 126.701H55.1569Z" fill="#131825" fill-opacity="0.2"/>
<path d="M60.0189 120.95C60.9712 121.51 61.5727 122.12 61.8735 122.731C62.1241 123.393 62.074 124.054 61.673 124.767C61.272 125.479 60.7206 125.886 60.069 125.988C59.4174 126.09 58.6154 125.835 57.6631 125.326L56.5102 124.665C55.5579 124.105 54.9564 123.494 54.7058 122.884C54.4552 122.273 54.5053 121.56 54.9063 120.848C55.3073 120.136 55.8586 119.728 56.5102 119.627C57.1619 119.525 57.9638 119.779 58.8661 120.288L60.0189 120.95ZM58.1643 121.357C57.5628 121.001 57.0616 120.797 56.6606 120.797C56.2596 120.797 55.9589 121.001 55.7584 121.357C55.5579 121.713 55.5579 122.069 55.7584 122.375C55.9088 122.731 56.3098 123.036 56.8611 123.393L58.3648 124.258C58.9663 124.614 59.4675 124.817 59.8685 124.817C60.2695 124.817 60.5703 124.614 60.7708 124.258C60.9712 123.901 60.9712 123.545 60.7708 123.24C60.5703 122.884 60.2194 122.578 59.6179 122.222L58.1142 121.357H58.1643Z" fill="#131825" fill-opacity="0.2"/>
<path d="M41.3729 168.023L39.6186 172.909L38.8166 172.603L37.1124 169.245C36.8618 168.736 36.6111 168.38 36.4106 168.125C36.2102 167.871 35.9595 167.718 35.7089 167.616C35.358 167.514 35.0573 167.464 34.8067 167.616C34.5561 167.769 34.3556 167.972 34.2052 168.278C34.0548 168.685 34.0548 169.041 34.2052 169.296C34.3556 169.601 34.6563 169.805 35.0573 169.957L34.6062 171.179C34.1551 171.026 33.8042 170.771 33.5536 170.466C33.303 170.161 33.1025 169.754 33.0524 169.296C33.0022 168.838 33.0524 168.38 33.2027 167.922C33.4533 167.209 33.8042 166.751 34.3055 166.446C34.8067 166.191 35.3581 166.14 35.9595 166.395C36.3104 166.548 36.6613 166.751 36.962 167.107C37.2627 167.464 37.6136 167.972 37.9144 168.583L39.1674 171.026L40.3704 167.667L41.3228 168.023H41.3729Z" fill="#131825" fill-opacity="0.2"/>
<path d="M39.9694 162.578C40.2701 163.138 40.2701 163.698 40.0696 164.207C39.819 164.818 39.418 165.276 38.8666 165.479C38.3153 165.683 37.6637 165.683 36.9118 165.428C36.4607 165.276 36.0597 165.021 35.759 164.665C35.4582 164.309 35.2577 163.952 35.1575 163.494C35.0572 163.087 35.1575 162.629 35.2577 162.171C35.5084 161.459 36.0096 160.95 36.6612 160.746C37.3629 160.492 38.1649 160.594 39.017 160.899L39.3679 161.001C40.6711 161.459 41.5232 162.12 41.9743 162.985C42.4254 163.851 42.4755 164.818 42.0745 165.988V166.141L41.0219 165.784V165.632C41.3227 164.919 41.3728 164.309 41.1723 163.8C40.9718 163.291 40.5708 162.884 39.8691 162.578H39.9694ZM39.2676 163.647C39.2676 163.647 39.3679 163.138 39.2676 162.884C39.2175 162.629 39.0671 162.375 38.8666 162.171L38.4155 162.019C37.9143 161.815 37.413 161.764 37.0121 161.866C36.6111 161.968 36.3605 162.171 36.2101 162.527C36.1098 162.884 36.1098 163.189 36.3103 163.494C36.5108 163.8 36.8617 164.054 37.2627 164.207C37.7138 164.36 38.1148 164.41 38.4656 164.309C38.8165 164.207 39.0671 163.952 39.1674 163.647H39.2676Z" fill="#131825" fill-opacity="0.2"/>
<path d="M42.4756 155.504C43.4781 155.861 44.1798 156.37 44.5808 156.929C44.9818 157.489 45.0319 158.202 44.7312 159.016C44.4304 159.779 43.9793 160.288 43.3277 160.492C42.6761 160.695 41.8741 160.644 40.8717 160.288L39.6186 159.83C38.6161 159.474 37.9144 158.965 37.5134 158.405C37.1124 157.845 37.1124 157.133 37.363 156.319C37.6637 155.504 38.1149 155.046 38.7665 154.843C39.4181 154.639 40.22 154.69 41.2225 155.097L42.4756 155.555V155.504ZM40.7213 156.217C40.0697 155.962 39.5183 155.861 39.1675 155.962C38.7665 156.013 38.5158 156.268 38.3655 156.675C38.2151 157.082 38.2652 157.438 38.5158 157.693C38.7665 157.998 39.1674 158.253 39.7689 158.507L41.3729 159.118C42.0245 159.372 42.5759 159.474 42.9768 159.372C43.3778 159.321 43.6285 159.067 43.7788 158.66C43.9292 158.253 43.8791 157.947 43.6285 157.642C43.3778 157.337 42.9768 157.082 42.3252 156.828L40.7213 156.217Z" fill="#131825" fill-opacity="0.2"/>
<path d="M32.3506 204.97L31.4484 210.06L30.5963 209.907L28.3407 206.904C27.9899 206.446 27.7392 206.141 27.4886 205.937C27.238 205.734 26.9874 205.632 26.7368 205.581C26.3859 205.53 26.0852 205.581 25.8345 205.734C25.5839 205.887 25.4335 206.141 25.3834 206.497C25.3333 206.904 25.3834 207.261 25.5839 207.515C25.7844 207.769 26.0852 207.973 26.5363 208.024L26.3358 209.296C25.8847 209.194 25.4837 209.042 25.1829 208.787C24.8321 208.533 24.6316 208.177 24.4812 207.719C24.3308 207.311 24.3308 206.803 24.4311 206.294C24.5814 205.581 24.8321 205.021 25.2832 204.665C25.7343 204.309 26.2856 204.207 26.8871 204.309C27.238 204.36 27.639 204.563 27.9898 204.818C28.3407 205.123 28.7417 205.53 29.1928 206.141L30.8469 208.329L31.4484 204.818L32.4509 204.97H32.3506Z" fill="#131825" fill-opacity="0.2"/>
<path d="M27.8395 198.253C28.1904 198.304 28.4911 198.456 28.7417 198.711C28.9924 198.965 29.1929 199.271 29.2931 199.627C29.5437 199.271 29.8445 199.016 30.1953 198.864C30.5462 198.711 30.8971 198.66 31.2981 198.711C31.9497 198.813 32.4509 199.169 32.7516 199.678C33.0524 200.187 33.1526 200.848 33.0023 201.561C32.8519 202.324 32.5511 202.884 32.1 203.291C31.6489 203.698 31.0976 203.8 30.4459 203.698C30.045 203.647 29.6941 203.444 29.4435 203.189C29.1427 202.935 28.9924 202.579 28.8921 202.172C28.6916 202.477 28.3909 202.68 28.0901 202.833C27.7894 202.986 27.4385 202.986 27.0877 202.935C26.4361 202.833 25.9849 202.528 25.6842 202.019C25.3835 201.561 25.2832 200.95 25.4336 200.238C25.5338 199.525 25.8346 199.016 26.2857 198.66C26.7368 198.304 27.2882 198.202 27.8896 198.304L27.8395 198.253ZM27.6891 199.525C27.3884 199.474 27.0877 199.525 26.837 199.678C26.5864 199.831 26.4361 200.085 26.3859 200.39C26.3358 200.696 26.3859 201.001 26.5363 201.205C26.6867 201.408 26.9373 201.561 27.2882 201.612C27.639 201.663 27.9398 201.612 28.1403 201.459C28.3909 201.306 28.5412 201.052 28.5914 200.747C28.6415 200.441 28.5914 200.136 28.441 199.932C28.2906 199.729 28.04 199.576 27.6891 199.525ZM31.0474 199.983C30.6966 199.932 30.3457 199.983 30.0951 200.136C29.8445 200.339 29.644 200.594 29.5938 200.95C29.5437 201.306 29.5938 201.612 29.7943 201.917C29.9948 202.172 30.2455 202.324 30.6464 202.426C30.9973 202.477 31.298 202.426 31.5988 202.273C31.8494 202.121 31.9998 201.815 32.1 201.459C32.2003 201.103 32.1 200.747 31.9497 200.492C31.7993 200.238 31.4985 200.085 31.0976 200.034L31.0474 199.983Z" fill="#131825" fill-opacity="0.2"/>
<path d="M31.2479 192.451C32.3005 192.655 33.1024 193.011 33.5536 193.52C34.0047 194.029 34.2052 194.69 34.0548 195.505C33.9044 196.319 33.5536 196.879 32.9521 197.235C32.3506 197.54 31.5486 197.642 30.496 197.438L29.1928 197.184C28.1402 196.98 27.3382 196.624 26.8871 196.115C26.436 195.606 26.2856 194.945 26.3859 194.131C26.5363 193.316 26.8871 192.706 27.4886 192.4C28.0901 192.095 28.8921 191.993 29.9447 192.197L31.2479 192.451ZM29.6439 193.469C28.9422 193.367 28.3908 193.367 28.04 193.469C27.6891 193.622 27.4886 193.876 27.3884 194.283C27.3382 194.69 27.3884 195.047 27.6891 195.301C27.9397 195.556 28.441 195.759 29.0926 195.861L30.7968 196.166C31.4985 196.268 32.0499 196.268 32.4007 196.166C32.8017 196.014 33.0022 195.759 33.0523 195.301C33.1025 194.894 33.0523 194.589 32.7516 194.334C32.4508 194.08 31.9997 193.876 31.298 193.774L29.5938 193.469H29.6439Z" fill="#131825" fill-opacity="0.2"/>
<path d="M29.5938 242.985V248.176H28.7417L25.9849 245.632C25.584 245.276 25.2331 245.021 24.9825 244.818C24.7319 244.614 24.4311 244.563 24.1805 244.563C23.8296 244.563 23.5289 244.665 23.3284 244.868C23.1279 245.072 22.9775 245.377 22.9775 245.683C22.9775 246.09 23.0778 246.446 23.3284 246.65C23.579 246.853 23.9299 247.006 24.3309 247.006V248.278C23.8797 248.278 23.4788 248.176 23.0778 247.973C22.6768 247.769 22.4262 247.464 22.2257 247.057C22.0252 246.65 21.9249 246.192 21.9249 245.683C21.9249 244.919 22.1254 244.36 22.4763 243.901C22.8272 243.443 23.3785 243.24 24.0301 243.24C24.4311 243.24 24.782 243.342 25.2331 243.545C25.6842 243.749 26.1353 244.105 26.6365 244.614L28.6415 246.497V242.935H29.644L29.5938 242.985Z" fill="#131825" fill-opacity="0.2"/>
<path d="M22.7269 236.879L29.5938 239.932V241.255L23.0276 238.202V242.171H22.0251V236.828H22.7269V236.879Z" fill="#131825" fill-opacity="0.2"/>
<path d="M26.4361 230.823C27.5388 230.823 28.3408 231.026 28.8922 231.433C29.4435 231.841 29.7443 232.502 29.7443 233.316C29.7443 234.131 29.4936 234.792 28.9423 235.199C28.3909 235.606 27.5889 235.861 26.5363 235.861H25.2331C24.1304 235.861 23.3284 235.657 22.7771 235.25C22.2257 234.843 21.9751 234.182 21.9751 233.367C21.9751 232.553 22.2257 231.891 22.7771 231.484C23.3284 231.077 24.0803 230.874 25.183 230.823H26.4862H26.4361ZM25.0326 232.095C24.3309 232.095 23.7795 232.197 23.4788 232.4C23.1781 232.604 22.9776 232.909 22.9776 233.316C22.9776 233.724 23.1279 234.029 23.4287 234.232C23.7294 234.436 24.2307 234.538 24.8823 234.538H26.5865C27.2882 234.538 27.8396 234.436 28.1904 234.232C28.5413 234.029 28.6917 233.724 28.6917 233.266C28.6917 232.807 28.5413 232.553 28.1904 232.349C27.8396 232.146 27.3884 232.044 26.6867 232.044H24.9825L25.0326 232.095Z" fill="#131825" fill-opacity="0.2"/>
<path d="M33.5035 280.848L34.4058 285.937L33.5537 286.09L30.3959 284.054C29.9448 283.749 29.5438 283.545 29.243 283.444C28.9423 283.342 28.6416 283.291 28.3909 283.342C28.0401 283.393 27.7895 283.545 27.589 283.8C27.3885 284.054 27.3383 284.36 27.3885 284.665C27.4386 285.072 27.6391 285.377 27.9398 285.53C28.2406 285.734 28.5914 285.785 28.9924 285.683L29.1929 286.955C28.7418 287.057 28.2907 287.006 27.8897 286.853C27.4887 286.701 27.1379 286.446 26.8872 286.09C26.6366 285.734 26.4361 285.327 26.3359 284.818C26.1855 284.105 26.3359 283.444 26.5865 282.986C26.8872 282.477 27.3383 282.171 27.99 282.07C28.3408 282.019 28.7919 282.07 29.1929 282.171C29.644 282.324 30.1453 282.578 30.7468 282.986L33.0023 284.512L32.4008 281.001L33.4033 280.848H33.5035Z" fill="#131825" fill-opacity="0.2"/>
<path d="M25.1328 277.286L26.1854 277.083V277.235C26.3358 277.948 26.6365 278.457 27.0876 278.813C27.5387 279.169 28.0901 279.322 28.7918 279.271C28.2906 278.915 27.9899 278.457 27.8896 277.846C27.7894 277.184 27.8896 276.625 28.2906 276.116C28.6916 275.658 29.2429 275.352 29.9948 275.2C30.7467 275.047 31.3983 275.2 31.9496 275.556C32.501 275.912 32.8518 276.472 32.9521 277.235C33.1025 277.999 32.9521 278.66 32.4509 279.22C31.9496 279.78 31.298 280.136 30.3958 280.289H29.9948C28.6916 280.594 27.5889 280.441 26.7368 279.932C25.8847 279.424 25.3333 278.558 25.1328 277.337V277.184V277.286ZM28.9422 277.999C28.9422 278.253 29.0926 278.507 29.2931 278.711C29.4936 278.915 29.7442 279.067 29.9948 279.118H30.3958C30.9472 278.966 31.3481 278.762 31.6489 278.457C31.9496 278.151 32.0499 277.846 31.9997 277.439C31.9496 277.032 31.7491 276.777 31.4484 276.625C31.1476 276.472 30.7467 276.421 30.2955 276.472C29.8444 276.574 29.4936 276.726 29.2429 276.981C28.9923 277.235 28.8921 277.591 28.9923 277.948L28.9422 277.999Z" fill="#131825" fill-opacity="0.2"/>
<path d="M28.2405 269.449C29.2931 269.245 30.1452 269.296 30.7968 269.601C31.3983 269.907 31.7993 270.467 31.9497 271.332C32.1 272.146 31.9497 272.808 31.4986 273.317C31.0474 273.825 30.2956 274.182 29.243 274.385L27.9398 274.64C26.8872 274.843 26.0351 274.792 25.4336 274.436C24.8321 274.131 24.4311 273.571 24.2808 272.706C24.1304 271.892 24.2808 271.23 24.7319 270.721C25.183 270.212 25.9348 269.856 26.9874 269.652L28.2906 269.398L28.2405 269.449ZM27.0877 270.976C26.3859 271.077 25.8847 271.281 25.584 271.535C25.2832 271.79 25.183 272.146 25.2331 272.553C25.2832 272.96 25.5338 273.266 25.8346 273.367C26.1855 273.52 26.6867 273.52 27.3383 273.367L29.0425 273.062C29.7442 272.96 30.2455 272.757 30.5462 272.502C30.8469 272.248 30.9472 271.892 30.8971 271.484C30.8469 271.077 30.5963 270.823 30.2455 270.67C29.8946 270.517 29.3934 270.517 28.6916 270.67L26.9874 270.976H27.0877Z" fill="#131825" fill-opacity="0.2"/>
<path d="M43.7287 317.592L45.4831 322.477L44.6811 322.783L41.2225 321.307C40.7213 321.103 40.3203 320.951 40.0196 320.9C39.7188 320.849 39.4181 320.9 39.1675 320.951C38.8166 321.052 38.566 321.256 38.4658 321.561C38.3154 321.816 38.3154 322.121 38.4658 322.477C38.6161 322.884 38.8166 323.139 39.1675 323.241C39.4682 323.393 39.8191 323.342 40.2702 323.241L40.7213 324.462C40.2702 324.615 39.8692 324.666 39.4181 324.615C39.0171 324.564 38.6161 324.36 38.3154 324.055C37.9645 323.75 37.764 323.342 37.5635 322.884C37.3129 322.172 37.2628 321.561 37.5134 321.052C37.7139 320.543 38.1149 320.136 38.7164 319.933C39.0672 319.78 39.4682 319.78 39.9193 319.831C40.3704 319.882 40.9218 320.085 41.6235 320.34L44.1297 321.409L42.9268 318.05L43.8791 317.694L43.7287 317.592Z" fill="#131825" fill-opacity="0.2"/>
<path d="M39.7689 317.694L36.0597 318.61L34.6562 314.742L35.6587 314.386L36.7113 317.286L38.4656 316.879C38.1649 316.625 37.9143 316.269 37.7639 315.862C37.5133 315.149 37.5634 314.538 37.814 314.029C38.1148 313.47 38.616 313.062 39.3679 312.808C40.0696 312.554 40.7212 312.554 41.3227 312.808C41.9242 313.062 42.3252 313.571 42.5758 314.335C42.8264 314.996 42.8264 315.607 42.5758 316.167C42.3753 316.727 41.9743 317.134 41.3728 317.439L40.9718 316.269C41.3227 316.116 41.5232 315.861 41.6234 315.607C41.7237 315.353 41.7237 315.047 41.6234 314.691C41.4731 314.335 41.2726 314.08 40.9217 313.979C40.5708 313.877 40.1698 313.877 39.7187 314.08C39.2676 314.233 38.9669 314.487 38.8165 314.793C38.6661 315.098 38.616 315.454 38.8165 315.862C38.9168 316.065 38.9669 316.269 39.1172 316.37C39.2175 316.523 39.418 316.625 39.6185 316.727L39.7187 317.795L39.7689 317.694Z" fill="#131825" fill-opacity="0.2"/>
<path d="M36.6613 307.312C37.6637 306.956 38.5158 306.854 39.1674 307.057C39.819 307.261 40.3203 307.77 40.5709 308.533C40.8716 309.297 40.8215 310.009 40.4205 310.569C40.0697 311.129 39.3679 311.638 38.3655 311.994L37.1124 312.452C36.1099 312.808 35.2578 312.91 34.6062 312.706C33.9546 312.503 33.5035 311.994 33.2027 311.23C32.902 310.416 32.9521 309.755 33.303 309.195C33.6538 308.635 34.3556 308.126 35.3079 307.77L36.561 307.312H36.6613ZM35.759 308.991C35.1074 309.246 34.6563 309.5 34.4057 309.805C34.1551 310.111 34.105 310.467 34.2553 310.874C34.4057 311.281 34.6563 311.485 35.0072 311.587C35.358 311.638 35.8593 311.587 36.5109 311.383L38.1148 310.772C38.7664 310.518 39.2176 310.263 39.5183 309.958C39.7689 309.653 39.819 309.297 39.6687 308.889C39.5183 308.482 39.2677 308.279 38.9168 308.177C38.566 308.126 38.0647 308.177 37.4131 308.431L35.8092 309.042L35.759 308.991Z" fill="#131825" fill-opacity="0.2"/>
<path d="M60.2194 351.79L62.7757 356.268L62.0239 356.726L58.3649 355.912C57.8135 355.81 57.4125 355.76 57.1118 355.76C56.811 355.76 56.5103 355.81 56.3098 355.963C56.0091 356.167 55.8086 356.37 55.7083 356.676C55.6081 356.981 55.6582 357.286 55.8086 357.541C56.0091 357.897 56.2597 358.101 56.6105 358.202C56.9614 358.253 57.3123 358.202 57.6631 357.999L58.3147 359.118C57.9137 359.373 57.5128 359.475 57.0616 359.475C56.6105 359.475 56.2597 359.373 55.8587 359.118C55.4577 358.864 55.1569 358.559 54.9063 358.1C54.5555 357.439 54.4051 356.828 54.5053 356.268C54.6056 355.709 54.9565 355.251 55.5078 354.945C55.8587 354.742 56.2095 354.64 56.7108 354.64C57.1619 354.64 57.7634 354.64 58.4651 354.843L61.1217 355.454L59.3673 352.35L60.2194 351.841V351.79Z" fill="#131825" fill-opacity="0.2"/>
<path d="M55.2572 348.584L54.8061 347.77L55.7083 347.261L56.1594 348.075L57.613 347.21L58.2646 348.33L56.811 349.195L58.4651 352.095L57.8135 352.503L51.7485 352.248L51.0969 351.078L55.3073 348.584H55.2572ZM56.8611 351.434L55.8587 349.704L53.1019 351.332H53.3024L56.8611 351.485V351.434Z" fill="#131825" fill-opacity="0.2"/>
<path d="M51.4979 342.935C52.4503 342.375 53.2522 342.121 53.954 342.223C54.6557 342.324 55.2071 342.681 55.608 343.444C56.009 344.157 56.1093 344.869 55.8085 345.48C55.5579 346.141 54.9564 346.701 54.0542 347.261L52.9014 347.922C51.949 348.482 51.147 348.737 50.4954 348.635C49.8438 348.533 49.2925 348.126 48.8414 347.414C48.4404 346.701 48.3401 345.989 48.5907 345.378C48.8414 344.767 49.4428 344.157 50.3451 343.597L51.4979 342.935ZM50.8964 344.767C50.2949 345.123 49.894 345.48 49.6935 345.836C49.493 346.192 49.493 346.548 49.6935 346.905C49.894 347.261 50.1947 347.464 50.5456 347.464C50.8964 347.464 51.3977 347.312 51.949 347.006L53.4527 346.141C54.0542 345.785 54.4552 345.429 54.6557 345.073C54.8562 344.716 54.8562 344.36 54.6557 344.004C54.4552 343.648 54.1545 343.444 53.8036 343.444C53.4527 343.444 52.9515 343.597 52.35 343.953L50.8463 344.818L50.8964 344.767Z" fill="#131825" fill-opacity="0.2"/>
<path d="M82.1235 382.783L85.3815 386.752L84.7299 387.312L81.0207 387.159C80.4694 387.159 80.0684 387.159 79.7175 387.21C79.3667 387.261 79.1662 387.363 78.9657 387.566C78.6649 387.821 78.5146 388.075 78.5146 388.381C78.5146 388.686 78.5647 388.991 78.7652 389.246C79.0158 389.551 79.3165 389.704 79.6674 389.755C80.0183 389.755 80.319 389.653 80.6699 389.348L81.4719 390.315C81.121 390.62 80.72 390.823 80.319 390.874C79.918 390.976 79.4669 390.874 79.0659 390.722C78.6649 390.569 78.3141 390.264 77.9632 389.857C77.5121 389.297 77.2615 388.737 77.2615 388.126C77.2615 387.566 77.5121 387.058 78.0133 386.65C78.3141 386.396 78.6649 386.243 79.116 386.142C79.5672 386.04 80.1686 385.989 80.8704 386.04L83.5771 386.192L81.3215 383.444L82.0733 382.783H82.1235Z" fill="#131825" fill-opacity="0.2"/>
<path d="M77.2113 383.75L76.7101 383.139C76.4595 382.834 76.1587 382.681 75.9081 382.63C75.6074 382.63 75.3066 382.681 75.056 382.935C74.7553 383.19 74.6049 383.444 74.6049 383.699C74.6049 383.953 74.7052 384.259 74.9558 384.564C75.1563 384.818 75.4069 384.971 75.7076 385.022C76.0084 385.073 76.259 385.022 76.5096 384.767L77.3116 385.734C77.0109 385.989 76.66 386.142 76.3091 386.192C75.9081 386.192 75.5573 386.192 75.2064 385.989C74.8555 385.836 74.5047 385.531 74.2039 385.175C73.7027 384.564 73.5022 384.004 73.5022 383.393C73.5022 382.834 73.8029 382.274 74.3042 381.867C74.5548 381.663 74.8555 381.51 75.2565 381.51C75.6074 381.51 75.9583 381.51 76.3091 381.714C76.1587 381.307 76.1086 380.9 76.2089 380.544C76.3091 380.187 76.5096 379.831 76.8605 379.577C77.3617 379.119 77.9632 378.966 78.5647 379.068C79.1662 379.17 79.7175 379.526 80.2188 380.086C80.6699 380.645 80.9205 381.256 80.9205 381.867C80.9205 382.477 80.6699 382.986 80.1686 383.444L79.3667 382.477C79.6173 382.274 79.7676 382.019 79.7676 381.663C79.7676 381.358 79.6674 381.052 79.4168 380.747C79.1662 380.442 78.8654 380.289 78.5647 380.238C78.2639 380.238 77.9632 380.289 77.6625 380.544C77.3617 380.798 77.2113 381.103 77.1612 381.409C77.1111 381.714 77.3116 382.07 77.6123 382.427L78.1136 382.986L77.3617 383.648L77.2113 383.75Z" fill="#131825" fill-opacity="0.2"/>
<path d="M71.9985 375.556C72.8506 374.844 73.6024 374.487 74.254 374.437C74.9557 374.437 75.5572 374.691 76.1086 375.353C76.6599 375.963 76.8103 376.625 76.6599 377.337C76.5096 377.999 76.0585 378.711 75.2565 379.373L74.254 380.238C73.4019 380.951 72.6501 381.307 71.9985 381.358C71.3468 381.409 70.6952 381.103 70.194 380.442C69.6427 379.78 69.4422 379.118 69.5925 378.457C69.7429 377.795 70.194 377.134 70.996 376.421L71.9985 375.556ZM71.7478 377.439C71.1965 377.897 70.8456 378.304 70.7454 378.711C70.595 379.068 70.6952 379.424 70.9459 379.78C71.1965 380.085 71.5473 380.238 71.8982 380.187C72.2491 380.136 72.7002 379.882 73.2014 379.475L74.5046 378.355C75.056 377.897 75.4069 377.49 75.5071 377.083C75.6074 376.676 75.5572 376.37 75.3066 376.014C75.056 375.709 74.7553 375.556 74.3543 375.607C74.0034 375.658 73.5523 375.912 73.0009 376.37L71.6977 377.49L71.7478 377.439Z" fill="#131825" fill-opacity="0.2"/>
<path d="M109.24 409.296L113.15 412.604L112.599 413.266L108.889 413.775C108.338 413.877 107.937 413.927 107.636 414.08C107.336 414.182 107.085 414.335 106.935 414.589C106.684 414.894 106.584 415.149 106.584 415.454C106.584 415.76 106.734 416.014 106.985 416.268C107.285 416.523 107.636 416.625 107.937 416.574C108.238 416.523 108.589 416.319 108.839 416.014L109.792 416.828C109.491 417.184 109.14 417.439 108.739 417.592C108.338 417.744 107.937 417.744 107.486 417.693C107.035 417.592 106.634 417.388 106.233 417.032C105.681 416.574 105.331 416.014 105.23 415.454C105.13 414.894 105.331 414.335 105.732 413.826C105.982 413.52 106.333 413.317 106.734 413.113C107.185 412.91 107.737 412.808 108.438 412.706L111.145 412.35L108.438 410.06L109.09 409.296H109.24Z" fill="#131825" fill-opacity="0.2"/>
<path d="M104.629 405.327L108.538 408.635L107.987 409.297L104.278 409.806C103.727 409.907 103.326 409.958 103.025 410.111C102.724 410.213 102.474 410.365 102.323 410.62C102.073 410.925 101.972 411.18 101.972 411.485C101.972 411.79 102.123 412.045 102.373 412.299C102.674 412.554 103.025 412.655 103.326 412.655C103.676 412.655 103.977 412.401 104.228 412.096L105.18 412.91C104.879 413.266 104.529 413.521 104.128 413.673C103.727 413.826 103.326 413.877 102.874 413.775C102.423 413.673 102.022 413.47 101.621 413.113C101.07 412.655 100.719 412.096 100.619 411.536C100.519 410.976 100.719 410.416 101.12 409.907C101.371 409.602 101.722 409.398 102.123 409.195C102.574 408.991 103.125 408.89 103.827 408.788L106.534 408.431L103.827 406.141L104.478 405.378L104.629 405.327Z" fill="#131825" fill-opacity="0.2"/>
<path d="M98.0627 403.953C98.7644 403.088 99.4661 402.579 100.118 402.426C100.769 402.274 101.421 402.426 102.073 402.986C102.724 403.546 102.975 404.157 102.975 404.818C102.975 405.531 102.574 406.243 101.922 407.108L101.07 408.126C100.368 408.991 99.6666 409.5 99.015 409.653C98.3634 409.806 97.7118 409.653 97.0602 409.093C96.4086 408.533 96.1078 407.923 96.158 407.261C96.158 406.599 96.559 405.836 97.2106 404.971L98.0627 403.953ZM98.1128 405.887C97.6617 406.447 97.4111 406.905 97.3108 407.312C97.2607 407.719 97.3609 408.024 97.7118 408.279C98.0125 408.533 98.3634 408.635 98.7143 408.482C99.0651 408.381 99.4661 408.024 99.9172 407.515L101.02 406.192C101.471 405.633 101.722 405.174 101.822 404.767C101.872 404.36 101.772 404.055 101.421 403.75C101.12 403.495 100.769 403.393 100.418 403.546C100.068 403.648 99.6666 404.004 99.2155 404.513L98.1128 405.836V405.887Z" fill="#131825" fill-opacity="0.2"/>
<path d="M140.217 430.569L144.628 433.164L144.176 433.928L140.618 435.047C140.116 435.2 139.715 435.403 139.415 435.556C139.164 435.709 138.964 435.912 138.813 436.167C138.613 436.472 138.563 436.778 138.663 437.083C138.713 437.388 138.913 437.643 139.214 437.795C139.565 437.999 139.916 438.05 140.217 437.948C140.517 437.846 140.818 437.592 141.019 437.236L142.121 437.897C141.871 438.304 141.57 438.61 141.219 438.813C140.868 439.017 140.467 439.119 140.016 439.119C139.565 439.119 139.114 438.966 138.713 438.711C138.061 438.355 137.66 437.897 137.46 437.337C137.259 436.778 137.36 436.218 137.66 435.658C137.861 435.302 138.162 435.047 138.512 434.793C138.913 434.538 139.465 434.284 140.116 434.08L142.723 433.266L139.665 431.485L140.167 430.62L140.217 430.569Z" fill="#131825" fill-opacity="0.2"/>
<path d="M136.407 428.38L137.51 429.042L134.452 434.385L136.357 434.793L135.806 435.709L132.698 435.149L132.548 435.047L136.357 428.38H136.407Z" fill="#131825" fill-opacity="0.2"/>
<path d="M128.287 427.312C128.839 426.345 129.44 425.734 130.042 425.429C130.693 425.175 131.345 425.225 132.047 425.633C132.748 426.04 133.149 426.599 133.25 427.261C133.35 427.923 133.099 428.737 132.598 429.704L131.946 430.874C131.395 431.841 130.793 432.452 130.192 432.706C129.59 432.961 128.889 432.91 128.187 432.503C127.485 432.096 127.084 431.536 126.984 430.874C126.884 430.213 127.134 429.398 127.636 428.482L128.287 427.312ZM128.688 429.195C128.337 429.806 128.137 430.314 128.137 430.722C128.137 431.129 128.337 431.434 128.688 431.638C129.039 431.841 129.39 431.841 129.691 431.638C130.042 431.485 130.342 431.078 130.693 430.518L131.545 428.991C131.896 428.381 132.097 427.872 132.097 427.465C132.097 427.057 131.896 426.752 131.545 426.549C131.194 426.345 130.844 426.345 130.543 426.549C130.192 426.752 129.891 427.108 129.54 427.719L128.688 429.246V429.195Z" fill="#131825" fill-opacity="0.2"/>
<path d="M174.601 446.244L179.413 448.025L179.113 448.839L175.804 450.569C175.303 450.824 174.952 451.078 174.702 451.282C174.451 451.485 174.301 451.74 174.2 451.994C174.1 452.351 174.05 452.656 174.2 452.91C174.351 453.165 174.551 453.368 174.852 453.521C175.253 453.674 175.604 453.674 175.855 453.521C176.155 453.368 176.356 453.063 176.506 452.656L177.709 453.114C177.559 453.572 177.308 453.928 177.007 454.183C176.707 454.437 176.306 454.641 175.855 454.692C175.403 454.742 174.952 454.692 174.501 454.539C173.8 454.284 173.348 453.928 173.048 453.419C172.797 452.91 172.747 452.351 172.998 451.74C173.148 451.384 173.348 451.027 173.699 450.722C174.05 450.417 174.551 450.06 175.153 449.755L177.559 448.483L174.251 447.261L174.601 446.295V446.244Z" fill="#131825" fill-opacity="0.2"/>
<path d="M167.935 447.211C168.286 446.193 168.787 445.48 169.338 445.073C169.89 444.666 170.592 444.615 171.394 444.92C172.145 445.226 172.647 445.684 172.847 446.345C173.048 447.007 172.997 447.821 172.647 448.839L172.195 450.111C171.845 451.129 171.343 451.842 170.792 452.249C170.241 452.605 169.539 452.656 168.737 452.401C167.935 452.096 167.484 451.638 167.283 450.976C167.083 450.315 167.133 449.501 167.534 448.483L167.985 447.211H167.935ZM168.637 448.992C168.386 449.653 168.286 450.213 168.386 450.569C168.486 450.926 168.687 451.231 169.088 451.384C169.489 451.536 169.84 451.485 170.09 451.231C170.341 450.976 170.642 450.569 170.892 449.959L171.494 448.33C171.744 447.669 171.845 447.109 171.744 446.702C171.694 446.294 171.444 446.04 171.043 445.887C170.642 445.735 170.341 445.786 170.04 446.04C169.739 446.294 169.489 446.702 169.238 447.363L168.637 448.992Z" fill="#131825" fill-opacity="0.2"/>
<path d="M162.271 445.124C162.622 444.106 163.123 443.394 163.674 442.987C164.226 442.58 164.928 442.529 165.73 442.834C166.481 443.139 166.983 443.597 167.183 444.259C167.384 444.921 167.334 445.735 166.983 446.753L166.532 448.025C166.181 449.043 165.679 449.755 165.128 450.162C164.577 450.569 163.875 450.569 163.073 450.315C162.271 450.01 161.82 449.552 161.619 448.89C161.419 448.228 161.469 447.414 161.87 446.396L162.321 445.124H162.271ZM162.973 446.905C162.722 447.567 162.622 448.127 162.722 448.483C162.772 448.89 163.023 449.144 163.424 449.297C163.825 449.45 164.176 449.399 164.426 449.144C164.727 448.89 164.978 448.483 165.228 447.872L165.83 446.244C166.08 445.582 166.181 445.022 166.08 444.615C166.03 444.208 165.78 443.954 165.379 443.801C164.978 443.648 164.677 443.699 164.376 443.954C164.075 444.208 163.825 444.615 163.574 445.277L162.973 446.905Z" fill="#131825" fill-opacity="0.2"/>
<path d="M212.595 455.709L213.848 455.913L212.796 462.02L214.751 461.715L214.55 462.783L211.442 463.343H211.292L212.595 455.709Z" fill="#131825" fill-opacity="0.2"/>
<path d="M205.929 457.796C206.43 457.439 206.931 457.287 207.483 457.389C208.134 457.49 208.635 457.847 208.936 458.355C209.237 458.915 209.337 459.526 209.187 460.289C209.087 460.798 208.936 461.205 208.635 461.612C208.335 462.02 208.034 462.223 207.633 462.427C207.232 462.579 206.781 462.63 206.28 462.528C205.528 462.376 204.976 462.02 204.626 461.358C204.275 460.696 204.174 459.933 204.375 458.966V458.61C204.676 457.236 205.177 456.269 205.879 455.658C206.63 455.048 207.583 454.844 208.786 455.048H208.936L208.736 456.116H208.535C207.783 455.964 207.182 456.065 206.731 456.32C206.28 456.574 205.979 457.083 205.778 457.796H205.929ZM207.082 458.305C207.082 458.305 206.58 458.305 206.33 458.406C206.079 458.508 205.879 458.661 205.728 458.915L205.628 459.424C205.528 459.984 205.578 460.442 205.728 460.849C205.879 461.256 206.179 461.46 206.53 461.511C206.881 461.562 207.182 461.511 207.483 461.205C207.733 460.951 207.934 460.595 207.984 460.137C208.084 459.679 207.984 459.271 207.884 458.915C207.783 458.559 207.483 458.406 207.082 458.305Z" fill="#131825" fill-opacity="0.2"/>
<path d="M198.661 456.524C198.861 455.455 199.212 454.641 199.713 454.183C200.215 453.725 200.866 453.521 201.668 453.674C202.47 453.826 203.022 454.183 203.372 454.793C203.673 455.404 203.773 456.218 203.573 457.287L203.322 458.61C203.122 459.679 202.771 460.493 202.27 460.951C201.768 461.409 201.117 461.562 200.315 461.46C199.513 461.307 198.911 460.951 198.611 460.34C198.31 459.73 198.21 458.915 198.41 457.847L198.661 456.524ZM199.663 458.152C199.563 458.865 199.563 459.424 199.663 459.781C199.814 460.137 200.064 460.34 200.465 460.442C200.866 460.493 201.217 460.442 201.468 460.137C201.718 459.882 201.919 459.373 202.019 458.712L202.32 456.982C202.42 456.269 202.42 455.709 202.32 455.353C202.169 454.946 201.919 454.742 201.468 454.691C201.067 454.641 200.766 454.691 200.515 454.997C200.265 455.302 200.064 455.76 199.964 456.473L199.663 458.203V458.152Z" fill="#131825" fill-opacity="0.2"/>
<path d="M250.088 458.203H251.341V464.361L253.195 463.699V464.768L250.238 465.887H250.088V458.152V458.203Z" fill="#131825" fill-opacity="0.2"/>
<path d="M242.719 463.851C242.719 463.495 242.82 463.139 243.02 462.834C243.221 462.528 243.471 462.325 243.822 462.121C243.421 461.918 243.12 461.663 242.92 461.358C242.719 461.052 242.619 460.645 242.619 460.238C242.619 459.577 242.82 459.017 243.271 458.61C243.722 458.203 244.323 457.999 245.075 457.999C245.827 457.999 246.429 458.203 246.88 458.61C247.331 459.017 247.581 459.526 247.581 460.238C247.581 460.645 247.481 461.002 247.281 461.358C247.08 461.714 246.779 461.918 246.378 462.121C246.729 462.274 246.98 462.528 247.13 462.834C247.281 463.139 247.431 463.444 247.431 463.851C247.431 464.513 247.231 465.022 246.83 465.429C246.429 465.836 245.827 465.989 245.125 465.989C244.424 465.989 243.872 465.785 243.421 465.429C242.97 465.073 242.82 464.513 242.82 463.851H242.719ZM243.822 460.34C243.822 460.696 243.922 461.053 244.173 461.256C244.424 461.46 244.674 461.612 245.075 461.612C245.476 461.612 245.727 461.511 245.977 461.256C246.228 461.002 246.328 460.696 246.328 460.34C246.328 459.984 246.228 459.678 246.028 459.424C245.827 459.17 245.526 459.068 245.125 459.068C244.724 459.068 244.424 459.17 244.223 459.373C244.023 459.577 243.922 459.882 243.922 460.289L243.822 460.34ZM243.972 463.801C243.972 464.157 244.073 464.411 244.273 464.615C244.474 464.818 244.724 464.92 245.025 464.92C245.326 464.92 245.627 464.818 245.777 464.615C245.927 464.411 246.078 464.106 246.078 463.75C246.078 463.393 245.977 463.139 245.777 462.885C245.576 462.63 245.326 462.579 245.025 462.579C244.724 462.579 244.424 462.681 244.273 462.885C244.123 463.088 243.972 463.393 243.972 463.75V463.801Z" fill="#131825" fill-opacity="0.2"/>
<path d="M236.454 461.46C236.454 460.34 236.654 459.526 237.055 458.966C237.456 458.406 238.108 458.101 238.91 458.101C239.712 458.101 240.364 458.356 240.765 458.915C241.166 459.475 241.416 460.289 241.416 461.358V462.681C241.416 463.801 241.216 464.615 240.815 465.175C240.414 465.735 239.762 465.989 238.96 465.989C238.158 465.989 237.507 465.735 237.106 465.175C236.705 464.615 236.504 463.852 236.454 462.732V461.409V461.46ZM237.707 462.885C237.707 463.597 237.807 464.157 238.008 464.462C238.208 464.768 238.509 464.971 238.91 464.971C239.311 464.971 239.612 464.819 239.812 464.513C240.013 464.208 240.113 463.699 240.113 463.037V461.307C240.113 460.595 240.013 460.035 239.812 459.679C239.612 459.322 239.311 459.17 238.86 459.17C238.409 459.17 238.158 459.322 237.958 459.679C237.757 460.035 237.657 460.493 237.657 461.205V462.936L237.707 462.885Z" fill="#131825" fill-opacity="0.2"/>
<path d="M287.38 453.979L288.633 453.775L289.685 459.882L291.389 458.915L291.59 459.984L288.883 461.613H288.733L287.43 454.03L287.38 453.979Z" fill="#131825" fill-opacity="0.2"/>
<path d="M281.014 462.223L282.818 454.793L284.121 454.539L282.267 461.612L286.126 460.9L286.277 461.918L281.114 462.834L281.014 462.121V462.223Z" fill="#131825" fill-opacity="0.2"/>
<path d="M274.498 459.577C274.297 458.508 274.347 457.643 274.648 456.982C274.949 456.371 275.5 455.964 276.352 455.811C277.154 455.658 277.806 455.811 278.307 456.269C278.808 456.727 279.159 457.491 279.36 458.559L279.61 459.882C279.811 460.951 279.761 461.816 279.41 462.427C279.109 463.038 278.558 463.445 277.706 463.597C276.904 463.75 276.252 463.597 275.751 463.139C275.25 462.681 274.899 461.918 274.698 460.849L274.448 459.526L274.498 459.577ZM276.001 460.748C276.102 461.46 276.302 461.969 276.553 462.274C276.803 462.58 277.154 462.681 277.555 462.631C277.956 462.58 278.257 462.325 278.357 462.02C278.508 461.664 278.508 461.155 278.357 460.493L278.057 458.763C277.956 458.05 277.756 457.541 277.505 457.236C277.255 456.931 276.904 456.829 276.503 456.88C276.102 456.931 275.851 457.185 275.701 457.541C275.55 457.898 275.55 458.407 275.701 459.119L276.001 460.849V460.748Z" fill="#131825" fill-opacity="0.2"/>
<path d="M323.519 443.292L324.722 442.834L326.827 448.636L328.381 447.363L328.732 448.381L326.326 450.468H326.175L323.569 443.292H323.519Z" fill="#131825" fill-opacity="0.2"/>
<path d="M319.91 452.809L319.559 451.791H319.709C320.361 451.486 320.812 451.078 321.113 450.57C321.363 450.061 321.413 449.45 321.263 448.788C321.012 449.348 320.611 449.704 320.01 449.959C319.358 450.213 318.807 450.162 318.256 449.857C317.754 449.552 317.353 449.043 317.103 448.33C316.852 447.618 316.852 446.905 317.103 446.295C317.353 445.684 317.855 445.226 318.556 444.972C319.258 444.717 319.96 444.768 320.561 445.124C321.213 445.48 321.664 446.091 321.965 446.956L322.115 447.363C322.566 448.636 322.616 449.755 322.265 450.671C321.915 451.638 321.163 452.3 320.01 452.707H319.91V452.809ZM319.91 448.89C320.16 448.788 320.361 448.636 320.561 448.381C320.762 448.127 320.812 447.872 320.812 447.618L320.662 447.262C320.461 446.702 320.21 446.346 319.86 446.091C319.509 445.837 319.158 445.786 318.807 445.938C318.456 446.091 318.205 446.295 318.105 446.651C318.005 447.007 318.005 447.363 318.155 447.821C318.306 448.279 318.556 448.585 318.857 448.788C319.158 448.992 319.509 449.043 319.86 448.89H319.91Z" fill="#131825" fill-opacity="0.2"/>
<path d="M311.79 451.078C311.439 450.061 311.339 449.195 311.539 448.534C311.74 447.872 312.241 447.363 312.993 447.109C313.745 446.804 314.446 446.854 314.998 447.262C315.549 447.669 316.05 448.33 316.401 449.348L316.852 450.62C317.203 451.638 317.303 452.503 317.103 453.165C316.902 453.826 316.401 454.284 315.649 454.59C314.847 454.895 314.196 454.844 313.644 454.488C313.093 454.132 312.592 453.419 312.241 452.452L311.79 451.18V451.078ZM313.444 451.994C313.694 452.656 313.945 453.114 314.246 453.368C314.546 453.623 314.897 453.674 315.298 453.521C315.699 453.368 315.9 453.114 316 452.758C316.05 452.402 316 451.893 315.8 451.231L315.198 449.603C314.947 448.941 314.697 448.483 314.396 448.178C314.095 447.923 313.745 447.872 313.344 448.025C312.943 448.178 312.742 448.432 312.642 448.788C312.592 449.145 312.642 449.653 312.892 450.315L313.494 451.944L313.444 451.994Z" fill="#131825" fill-opacity="0.2"/>
<path d="M357.051 426.244L358.154 425.582L361.212 430.926L362.515 429.45L363.066 430.366L361.061 432.809L360.911 432.91L357.101 426.244H357.051Z" fill="#131825" fill-opacity="0.2"/>
<path d="M356.35 431.078L357.903 434.64L354.395 436.727L353.843 435.76L356.45 434.233L355.748 432.554C355.548 432.91 355.247 433.215 354.846 433.419C354.244 433.775 353.643 433.877 353.041 433.673C352.49 433.47 351.989 433.012 351.588 432.35C351.187 431.689 351.087 431.027 351.237 430.416C351.387 429.806 351.788 429.297 352.49 428.89C353.092 428.534 353.693 428.432 354.295 428.534C354.896 428.635 355.347 428.992 355.698 429.551L354.645 430.162C354.395 429.857 354.144 429.704 353.894 429.602C353.643 429.5 353.342 429.602 352.991 429.755C352.64 429.958 352.44 430.213 352.39 430.569C352.39 430.925 352.39 431.332 352.691 431.74C352.941 432.147 353.192 432.401 353.543 432.503C353.894 432.605 354.244 432.554 354.595 432.35C354.796 432.249 354.946 432.096 355.046 431.994C355.147 431.841 355.247 431.689 355.297 431.434L356.3 431.129L356.35 431.078Z" fill="#131825" fill-opacity="0.2"/>
<path d="M346.876 436.015C346.325 435.048 346.074 434.233 346.174 433.521C346.275 432.808 346.626 432.249 347.377 431.842C348.079 431.434 348.781 431.333 349.382 431.638C350.034 431.892 350.585 432.503 351.137 433.419L351.788 434.59C352.34 435.557 352.59 436.371 352.49 437.032C352.39 437.694 351.989 438.254 351.287 438.712C350.585 439.119 349.884 439.221 349.282 438.966C348.681 438.712 348.079 438.101 347.528 437.185L346.876 436.015ZM348.681 436.625C349.032 437.236 349.382 437.643 349.733 437.847C350.084 438.05 350.435 438.05 350.786 437.847C351.137 437.643 351.337 437.338 351.337 436.982C351.337 436.625 351.187 436.116 350.886 435.557L350.034 434.03C349.683 433.419 349.332 433.012 348.981 432.808C348.631 432.605 348.28 432.605 347.929 432.808C347.578 433.012 347.377 433.317 347.377 433.674C347.377 434.03 347.528 434.539 347.879 435.149L348.731 436.676L348.681 436.625Z" fill="#131825" fill-opacity="0.2"/>
<path d="M387.376 403.801L388.328 402.986L392.238 407.719L393.241 405.989L393.942 406.803L392.388 409.602L392.288 409.704L387.376 403.801Z" fill="#131825" fill-opacity="0.2"/>
<path d="M383.817 410.416L383.116 411.027L382.464 410.213L383.166 409.602L382.063 408.279L383.015 407.465L384.118 408.788L386.624 406.65L387.125 407.21L387.927 413.317L386.925 414.182L383.767 410.365L383.817 410.416ZM386.323 408.279L384.82 409.551L386.875 411.994V411.79L386.374 408.228L386.323 408.279Z" fill="#131825" fill-opacity="0.2"/>
<path d="M379.005 415.2C378.304 414.335 377.953 413.572 377.903 412.91C377.903 412.198 378.153 411.587 378.805 411.027C379.406 410.467 380.058 410.315 380.76 410.467C381.411 410.62 382.113 411.078 382.765 411.892L383.617 412.91C384.319 413.775 384.669 414.539 384.72 415.2C384.77 415.862 384.469 416.523 383.817 417.032C383.166 417.592 382.514 417.796 381.862 417.643C381.211 417.49 380.559 417.032 379.858 416.218L379.005 415.2ZM380.86 415.455C381.311 416.014 381.712 416.371 382.113 416.472C382.464 416.625 382.815 416.523 383.166 416.269C383.466 416.014 383.617 415.658 383.567 415.302C383.517 414.946 383.266 414.488 382.865 413.979L381.762 412.656C381.311 412.096 380.91 411.74 380.509 411.638C380.108 411.536 379.807 411.587 379.457 411.841C379.156 412.096 379.005 412.401 379.056 412.808C379.106 413.165 379.356 413.623 379.807 414.182L380.91 415.506L380.86 415.455Z" fill="#131825" fill-opacity="0.2"/>
<path d="M413.29 376.014L414.092 375.047L418.753 379.017L419.455 377.134L420.257 377.846L419.205 380.849L419.104 380.951L413.29 375.963V376.014Z" fill="#131825" fill-opacity="0.2"/>
<path d="M414.042 382.07L413.541 382.681C413.29 382.986 413.19 383.291 413.19 383.597C413.19 383.902 413.34 384.157 413.641 384.411C413.942 384.665 414.192 384.767 414.443 384.716C414.693 384.666 414.994 384.564 415.245 384.258C415.445 384.004 415.546 383.699 415.546 383.393C415.546 383.088 415.395 382.833 415.145 382.63L415.947 381.663C416.247 381.917 416.448 382.223 416.548 382.579C416.648 382.935 416.648 383.342 416.548 383.749C416.448 384.157 416.247 384.513 415.947 384.869C415.445 385.48 414.944 385.785 414.343 385.887C413.791 385.989 413.24 385.785 412.689 385.378C412.438 385.174 412.237 384.869 412.187 384.513C412.137 384.157 412.087 383.8 412.187 383.393C411.786 383.648 411.435 383.699 411.085 383.699C410.734 383.699 410.383 383.495 410.032 383.241C409.531 382.783 409.23 382.274 409.23 381.612C409.23 381.001 409.481 380.391 409.932 379.78C410.383 379.22 410.934 378.864 411.536 378.762C412.137 378.66 412.689 378.762 413.19 379.22L412.388 380.187C412.137 379.984 411.836 379.882 411.536 379.933C411.235 379.933 410.984 380.136 410.734 380.442C410.483 380.747 410.383 381.052 410.383 381.358C410.383 381.663 410.533 381.968 410.834 382.223C411.135 382.477 411.435 382.579 411.786 382.528C412.087 382.528 412.388 382.274 412.689 381.917L413.19 381.358L413.942 382.019L414.042 382.07Z" fill="#131825" fill-opacity="0.2"/>
<path d="M406.974 388.737C406.122 388.024 405.621 387.312 405.471 386.65C405.32 385.989 405.471 385.327 406.022 384.666C406.573 384.004 407.175 383.75 407.826 383.75C408.528 383.75 409.23 384.157 410.082 384.818L411.085 385.683C411.937 386.396 412.438 387.108 412.588 387.77C412.739 388.431 412.588 389.093 412.037 389.755C411.486 390.416 410.884 390.722 410.232 390.671C409.581 390.671 408.829 390.264 407.977 389.602L406.974 388.737ZM408.879 388.686C409.43 389.144 409.882 389.398 410.283 389.5C410.684 389.551 410.984 389.449 411.235 389.093C411.486 388.788 411.586 388.431 411.435 388.075C411.335 387.719 410.984 387.312 410.483 386.854L409.18 385.734C408.628 385.276 408.177 385.022 407.776 384.92C407.375 384.869 407.075 384.971 406.774 385.327C406.523 385.632 406.423 385.989 406.573 386.345C406.674 386.701 407.025 387.108 407.526 387.566L408.829 388.686H408.879Z" fill="#131825" fill-opacity="0.2"/>
<path d="M434.041 344.462L434.693 343.342L439.956 346.447L440.357 344.513L441.259 345.073L440.708 348.228L440.607 348.381L434.041 344.513V344.462Z" fill="#131825" fill-opacity="0.2"/>
<path d="M430.182 351.23L432.738 346.752L433.49 347.21L434.593 350.823C434.743 351.332 434.943 351.739 435.094 352.045C435.244 352.299 435.445 352.503 435.695 352.655C435.996 352.859 436.297 352.91 436.597 352.808C436.898 352.757 437.149 352.553 437.299 352.248C437.5 351.892 437.55 351.536 437.45 351.23C437.349 350.925 437.099 350.62 436.748 350.416L437.399 349.296C437.8 349.551 438.101 349.856 438.302 350.213C438.502 350.569 438.602 350.976 438.602 351.434C438.602 351.892 438.452 352.35 438.201 352.757C437.851 353.419 437.399 353.826 436.848 354.029C436.297 354.233 435.745 354.131 435.194 353.826C434.843 353.622 434.593 353.317 434.342 352.961C434.091 352.553 433.841 351.994 433.64 351.332L432.838 348.686L431.084 351.79L430.232 351.281L430.182 351.23Z" fill="#131825" fill-opacity="0.2"/>
<path d="M429.981 358.05C429.029 357.49 428.427 356.879 428.127 356.268C427.876 355.607 427.926 354.945 428.327 354.233C428.728 353.52 429.279 353.113 429.931 353.011C430.583 352.91 431.385 353.164 432.337 353.673L433.49 354.335C434.442 354.894 435.044 355.505 435.294 356.116C435.545 356.726 435.495 357.439 435.094 358.151C434.693 358.864 434.141 359.271 433.49 359.373C432.838 359.475 432.036 359.22 431.134 358.711L429.981 358.05ZM431.836 357.642C432.437 357.999 432.938 358.202 433.339 358.202C433.74 358.202 434.041 357.999 434.242 357.642C434.442 357.286 434.442 356.93 434.242 356.625C434.091 356.319 433.69 355.963 433.139 355.607L431.635 354.742C431.034 354.385 430.532 354.182 430.131 354.182C429.73 354.182 429.43 354.385 429.229 354.742C429.029 355.098 429.029 355.454 429.229 355.759C429.43 356.116 429.781 356.421 430.382 356.777L431.886 357.642H431.836Z" fill="#131825" fill-opacity="0.2"/>
<path d="M449.178 309.398L449.63 308.177L455.344 310.314V308.329L456.396 308.686V311.892V312.044L449.229 309.398H449.178Z" fill="#131825" fill-opacity="0.2"/>
<path d="M447.124 315.2L447.575 313.979L453.289 316.116V314.131L454.341 314.487V317.694V317.846L447.174 315.2H447.124Z" fill="#131825" fill-opacity="0.2"/>
<path d="M447.524 323.546C446.522 323.19 445.82 322.681 445.419 322.121C445.018 321.561 444.968 320.849 445.269 320.034C445.57 319.271 446.021 318.762 446.672 318.559C447.324 318.355 448.126 318.406 449.128 318.762L450.381 319.22C451.384 319.576 452.086 320.085 452.487 320.645C452.888 321.205 452.888 321.917 452.637 322.732C452.336 323.546 451.885 324.004 451.234 324.207C450.582 324.411 449.78 324.36 448.778 323.953L447.524 323.495V323.546ZM449.279 322.833C449.93 323.088 450.482 323.19 450.833 323.088C451.234 323.037 451.484 322.782 451.635 322.375C451.785 321.968 451.735 321.612 451.484 321.357C451.234 321.052 450.833 320.798 450.231 320.543L448.627 319.933C447.976 319.678 447.424 319.576 447.023 319.678C446.622 319.729 446.372 319.983 446.221 320.391C446.071 320.798 446.121 321.103 446.372 321.408C446.622 321.714 447.023 321.968 447.675 322.223L449.279 322.833Z" fill="#131825" fill-opacity="0.2"/>
<path d="M457.95 272.401L458.151 271.128L464.165 272.197L463.865 270.212L464.917 270.416L465.469 273.571V273.724L457.95 272.401Z" fill="#131825" fill-opacity="0.2"/>
<path d="M459.805 280.543C458.752 280.34 457.95 279.984 457.499 279.475C457.048 278.966 456.847 278.304 456.998 277.49C457.148 276.676 457.499 276.116 458.1 275.76C458.702 275.454 459.504 275.353 460.557 275.556L461.86 275.811C462.912 276.014 463.714 276.37 464.165 276.879C464.617 277.388 464.767 278.05 464.667 278.864C464.516 279.678 464.165 280.289 463.564 280.594C462.962 280.9 462.16 281.001 461.108 280.798L459.805 280.543ZM461.409 279.526C462.11 279.627 462.662 279.627 463.013 279.526C463.363 279.373 463.614 279.118 463.664 278.711C463.714 278.304 463.664 277.948 463.363 277.694C463.113 277.439 462.612 277.236 461.96 277.134L460.256 276.828C459.554 276.727 459.003 276.727 458.652 276.828C458.301 276.981 458.05 277.236 458 277.694C457.95 278.101 458 278.406 458.301 278.66C458.602 278.915 459.053 279.118 459.755 279.22L461.459 279.526H461.409Z" fill="#131825" fill-opacity="0.2"/>
<path d="M458.752 286.599C457.699 286.396 456.897 286.039 456.446 285.53C455.995 285.021 455.795 284.36 455.945 283.546C456.095 282.731 456.446 282.172 457.048 281.815C457.649 281.51 458.451 281.408 459.504 281.612L460.807 281.866C461.86 282.07 462.662 282.426 463.113 282.935C463.564 283.444 463.714 284.105 463.614 284.92C463.464 285.734 463.113 286.345 462.511 286.65C461.91 286.955 461.108 287.057 460.055 286.854L458.752 286.599ZM460.356 285.581C461.058 285.683 461.609 285.683 461.96 285.581C462.311 285.429 462.511 285.174 462.612 284.767C462.662 284.36 462.612 284.004 462.311 283.749C462.06 283.495 461.559 283.291 460.907 283.189L459.203 282.884C458.501 282.782 457.95 282.782 457.599 282.884C457.198 283.037 456.998 283.291 456.948 283.749C456.897 284.156 456.948 284.462 457.248 284.716C457.549 284.971 458 285.174 458.702 285.276L460.406 285.581H460.356Z" fill="#131825" fill-opacity="0.2"/>
<path d="M463.564 237.591C463.113 237.184 462.913 236.675 462.913 236.064C462.913 235.403 463.163 234.843 463.614 234.436C464.065 234.029 464.717 233.825 465.469 233.825C465.97 233.825 466.421 233.927 466.822 234.131C467.223 234.334 467.524 234.639 467.775 234.996C468.025 235.352 468.125 235.81 468.125 236.319C468.125 237.082 467.825 237.693 467.273 238.151C466.722 238.609 465.92 238.812 464.968 238.812H464.617C463.263 238.812 462.211 238.507 461.509 237.896C460.807 237.286 460.406 236.319 460.406 235.097V234.945H461.459V235.148C461.459 235.912 461.659 236.472 462.01 236.879C462.361 237.286 462.913 237.489 463.614 237.54L463.564 237.591ZM463.865 236.37C463.865 236.624 463.915 236.879 464.065 237.082C464.216 237.286 464.416 237.489 464.667 237.591H465.168C465.719 237.591 466.171 237.489 466.521 237.235C466.872 236.98 467.023 236.726 467.023 236.319C467.023 235.912 466.872 235.657 466.572 235.454C466.271 235.25 465.87 235.148 465.419 235.148C464.968 235.148 464.567 235.25 464.266 235.505C463.965 235.759 463.815 236.013 463.815 236.37H463.865Z" fill="#131825" fill-opacity="0.2"/>
<path d="M463.614 245.123C462.511 245.123 461.709 244.92 461.158 244.512C460.607 244.105 460.306 243.444 460.306 242.63C460.306 241.815 460.557 241.154 461.108 240.747C461.659 240.339 462.461 240.085 463.514 240.085H464.817C465.92 240.085 466.722 240.289 467.273 240.696C467.824 241.103 468.075 241.764 468.075 242.579C468.075 243.393 467.824 244.054 467.273 244.462C466.722 244.869 465.97 245.072 464.867 245.123H463.564H463.614ZM465.018 243.851C465.719 243.851 466.271 243.749 466.571 243.546C466.872 243.342 467.073 243.037 467.073 242.63C467.073 242.222 466.922 241.917 466.621 241.713C466.321 241.51 465.82 241.408 465.168 241.408H463.464C462.762 241.408 462.211 241.51 461.86 241.713C461.509 241.917 461.358 242.222 461.358 242.68C461.358 243.138 461.509 243.393 461.86 243.596C462.211 243.8 462.662 243.902 463.363 243.902H465.068L465.018 243.851Z" fill="#131825" fill-opacity="0.2"/>
<path d="M462.511 199.881C462.161 199.932 461.81 199.881 461.509 199.78C461.208 199.627 460.907 199.423 460.707 199.118C460.607 199.525 460.406 199.881 460.105 200.187C459.805 200.492 459.504 200.645 459.103 200.696C458.451 200.797 457.9 200.696 457.399 200.288C456.948 199.881 456.647 199.322 456.497 198.609C456.346 197.846 456.497 197.235 456.747 196.675C457.048 196.166 457.549 195.81 458.201 195.708C458.602 195.657 458.953 195.708 459.354 195.861C459.704 196.014 460.005 196.268 460.256 196.624C460.356 196.268 460.557 195.963 460.807 195.708C461.058 195.454 461.359 195.301 461.709 195.25C462.361 195.149 462.862 195.25 463.313 195.607C463.764 195.963 464.065 196.472 464.165 197.184C464.266 197.897 464.165 198.507 463.915 198.965C463.614 199.474 463.163 199.729 462.511 199.881ZM458.902 199.372C459.253 199.322 459.554 199.118 459.755 198.864C459.955 198.609 460.005 198.304 459.955 197.897C459.905 197.54 459.704 197.235 459.454 197.082C459.203 196.879 458.852 196.828 458.501 196.93C458.151 196.981 457.85 197.133 457.699 197.388C457.499 197.642 457.449 197.948 457.549 198.355C457.599 198.711 457.75 199.016 458 199.169C458.251 199.322 458.552 199.372 458.953 199.322L458.902 199.372ZM462.211 198.609C462.511 198.558 462.762 198.406 462.962 198.202C463.163 197.998 463.213 197.693 463.163 197.388C463.113 197.082 462.962 196.828 462.712 196.675C462.461 196.523 462.211 196.472 461.86 196.523C461.509 196.573 461.258 196.726 461.108 196.93C460.958 197.133 460.907 197.439 460.958 197.744C461.008 198.049 461.158 198.304 461.409 198.456C461.659 198.609 461.91 198.66 462.261 198.609H462.211Z" fill="#131825" fill-opacity="0.2"/>
<path d="M461.258 206.548C460.206 206.752 459.354 206.701 458.702 206.396C458.05 206.09 457.7 205.53 457.549 204.665C457.399 203.851 457.549 203.189 458 202.68C458.451 202.172 459.203 201.815 460.256 201.612L461.559 201.357C462.612 201.154 463.464 201.205 464.065 201.561C464.667 201.866 465.068 202.426 465.168 203.291C465.318 204.105 465.168 204.767 464.717 205.276C464.266 205.785 463.514 206.141 462.461 206.345L461.158 206.599L461.258 206.548ZM462.411 205.021C463.113 204.92 463.614 204.716 463.915 204.462C464.216 204.207 464.316 203.851 464.266 203.444C464.216 203.037 463.965 202.731 463.664 202.63C463.313 202.477 462.812 202.477 462.161 202.63L460.456 202.935C459.755 203.037 459.253 203.24 458.953 203.495C458.652 203.749 458.552 204.105 458.602 204.513C458.652 204.92 458.903 205.174 459.253 205.327C459.604 205.479 460.105 205.479 460.807 205.327L462.511 205.021H462.411Z" fill="#131825" fill-opacity="0.2"/>
<path d="M453.74 161.866L446.221 161.357L445.77 160.085L452.988 160.695L451.635 156.98L452.587 156.624L454.391 161.611L453.74 161.866Z" fill="#131825" fill-opacity="0.2"/>
<path d="M452.336 168.838C451.334 169.194 450.482 169.296 449.83 169.092C449.178 168.889 448.677 168.38 448.427 167.617C448.126 166.853 448.176 166.141 448.577 165.581C448.928 165.021 449.63 164.512 450.632 164.156L451.885 163.698C452.888 163.342 453.74 163.24 454.391 163.444C455.043 163.647 455.494 164.156 455.795 164.919C456.096 165.734 456.045 166.395 455.695 166.955C455.344 167.515 454.642 168.024 453.69 168.38L452.437 168.838H452.336ZM453.238 167.159C453.89 166.904 454.341 166.65 454.592 166.344C454.842 166.039 454.893 165.683 454.742 165.276C454.592 164.869 454.341 164.665 453.99 164.563C453.639 164.461 453.138 164.563 452.487 164.767L450.883 165.377C450.231 165.632 449.78 165.886 449.479 166.192C449.229 166.497 449.178 166.853 449.329 167.26C449.479 167.668 449.73 167.871 450.081 167.973C450.432 168.024 450.933 167.973 451.584 167.718L453.188 167.108L453.238 167.159Z" fill="#131825" fill-opacity="0.2"/>
<path d="M437.299 124.97L436.397 125.479L436.297 125.326C435.946 124.715 435.495 124.308 434.943 124.105C434.392 123.901 433.791 123.952 433.189 124.257C433.74 124.41 434.192 124.766 434.542 125.326C434.893 125.937 434.943 126.497 434.743 127.056C434.542 127.616 434.091 128.125 433.44 128.481C432.788 128.888 432.136 128.99 431.485 128.837C430.833 128.685 430.332 128.278 429.981 127.616C429.58 126.955 429.53 126.293 429.781 125.58C430.031 124.868 430.533 124.308 431.334 123.85L431.685 123.647C432.838 122.985 433.891 122.731 434.893 122.934C435.846 123.138 436.648 123.748 437.249 124.817V124.919L437.299 124.97ZM433.49 125.631C433.49 125.631 433.139 125.224 432.888 125.072C432.638 124.97 432.387 124.919 432.086 124.919L431.735 125.122C431.234 125.428 430.933 125.733 430.733 126.089C430.583 126.446 430.583 126.802 430.733 127.158C430.883 127.514 431.184 127.667 431.535 127.718C431.886 127.718 432.287 127.718 432.638 127.463C433.039 127.209 433.289 126.955 433.44 126.598C433.59 126.242 433.54 125.937 433.39 125.58L433.49 125.631Z" fill="#131825" fill-opacity="0.2"/>
<path d="M436.998 133.468C436.046 134.028 435.244 134.283 434.542 134.181C433.841 134.079 433.289 133.723 432.888 132.959C432.487 132.247 432.387 131.534 432.688 130.924C432.938 130.262 433.54 129.702 434.442 129.143L435.595 128.481C436.547 127.921 437.349 127.667 438.001 127.769C438.653 127.87 439.204 128.277 439.655 128.99C440.056 129.702 440.156 130.415 439.906 131.026C439.655 131.636 439.054 132.247 438.151 132.807L436.998 133.468ZM437.6 131.636C438.201 131.28 438.602 130.924 438.803 130.568C439.003 130.211 439.003 129.855 438.803 129.499C438.602 129.143 438.302 128.939 437.951 128.939C437.6 128.939 437.099 129.092 436.547 129.397L435.044 130.262C434.442 130.618 434.041 130.975 433.841 131.331C433.64 131.687 433.64 132.043 433.841 132.4C434.041 132.756 434.342 132.959 434.693 132.959C435.044 132.959 435.545 132.807 436.146 132.45L437.65 131.585L437.6 131.636Z" fill="#131825" fill-opacity="0.2"/>
<path d="M409.681 92.4505L412.889 90.2622L415.495 93.4174L414.643 94.1299L412.689 91.7889L411.185 92.8067C411.586 92.9594 411.887 93.163 412.187 93.5192C412.638 94.079 412.839 94.6897 412.739 95.3004C412.638 95.9111 412.288 96.4709 411.686 96.9798C411.085 97.4887 410.483 97.6923 409.832 97.6414C409.18 97.6414 408.629 97.2851 408.127 96.6744C407.676 96.1147 407.476 95.5549 407.476 94.9442C407.476 94.3335 407.726 93.8246 408.177 93.3665L408.979 94.3335C408.729 94.5879 408.578 94.8933 408.578 95.1986C408.578 95.504 408.679 95.7584 408.879 96.0638C409.13 96.3691 409.431 96.5218 409.781 96.5218C410.132 96.5218 410.483 96.3691 410.884 96.0129C411.235 95.7075 411.435 95.4022 411.486 94.9951C411.536 94.6388 411.435 94.2826 411.135 93.9772C410.984 93.8246 410.834 93.6719 410.684 93.5701C410.533 93.4683 410.333 93.4174 410.082 93.4174L409.631 92.4505H409.681Z" fill="#131825" fill-opacity="0.2"/>
<path d="M416.097 101.102C415.245 101.814 414.493 102.171 413.841 102.222C413.14 102.222 412.538 101.967 411.987 101.305C411.486 100.695 411.285 100.033 411.435 99.3208C411.586 98.6083 412.037 97.9467 412.839 97.2851L413.841 96.42C414.693 95.7075 415.445 95.3513 416.097 95.3004C416.749 95.2495 417.4 95.5548 417.901 96.2164C418.453 96.878 418.653 97.5396 418.503 98.2011C418.352 98.8627 417.901 99.5243 417.099 100.237L416.097 101.102ZM416.348 99.1681C416.899 98.7101 417.25 98.3029 417.35 97.8958C417.5 97.5396 417.4 97.1833 417.15 96.878C416.899 96.5726 416.548 96.42 416.197 96.4709C415.846 96.5218 415.395 96.7762 414.894 97.1833L413.591 98.3029C413.039 98.761 412.689 99.1681 412.588 99.5752C412.438 99.9314 412.538 100.288 412.789 100.644C413.039 100.949 413.39 101.102 413.741 101.051C414.092 101 414.543 100.746 415.094 100.288L416.398 99.1681H416.348Z" fill="#131825" fill-opacity="0.2"/>
<path d="M384.168 69.0411L384.87 69.6518L384.218 70.4661L383.517 69.8554L382.414 71.1785L381.462 70.3643L382.564 69.0411L380.058 66.9037L380.509 66.293L386.324 64.4609L387.326 65.3261L384.168 69.1429V69.0411ZM381.662 66.9037L383.166 68.176L385.221 65.7332H385.02L381.662 66.9037Z" fill="#131825" fill-opacity="0.2"/>
<path d="M389.632 73.0617C388.93 73.9268 388.228 74.4357 387.577 74.5884C386.925 74.7411 386.273 74.5884 385.622 74.0286C384.97 73.5197 384.72 72.8581 384.72 72.1965C384.72 71.535 385.121 70.7716 385.772 69.9064L386.624 68.8886C387.326 68.0235 388.028 67.5146 388.679 67.3619C389.331 67.2092 389.983 67.3619 390.634 67.9217C391.286 68.4815 391.587 69.0922 391.536 69.7538C391.536 70.4154 391.135 71.1787 390.484 71.993L389.632 73.0108V73.0617ZM389.582 71.1278C390.033 70.568 390.283 70.11 390.384 69.7029C390.434 69.2958 390.333 68.9904 389.983 68.736C389.682 68.4815 389.331 68.3797 388.98 68.5324C388.629 68.6342 388.228 68.9395 387.777 69.4993L386.674 70.8225C386.223 71.3823 385.973 71.8403 385.872 72.2474C385.822 72.6546 385.923 72.9599 386.273 73.2652C386.574 73.5197 386.925 73.6215 387.276 73.4688C387.627 73.367 388.028 73.0108 388.479 72.5019L389.582 71.1787V71.1278Z" fill="#131825" fill-opacity="0.2"/>
<path d="M351.488 44.2571L352.139 44.6642C352.49 44.8678 352.791 44.9186 353.092 44.8677C353.392 44.8169 353.643 44.6133 353.793 44.3079C353.994 44.0026 354.044 43.6973 353.944 43.4428C353.844 43.1883 353.693 42.9339 353.342 42.7303C353.042 42.5777 352.741 42.5268 352.49 42.5777C352.189 42.6285 351.989 42.8321 351.839 43.0866L350.736 42.425C350.936 42.0688 351.187 41.8143 351.538 41.6616C351.889 41.509 352.24 41.4072 352.641 41.4581C353.042 41.4581 353.443 41.6107 353.844 41.8652C354.495 42.2723 354.896 42.7303 355.097 43.2901C355.297 43.8499 355.197 44.4097 354.846 45.0204C354.696 45.3258 354.445 45.5293 354.094 45.682C353.743 45.8347 353.392 45.8856 353.042 45.8347C353.342 46.1909 353.493 46.5471 353.543 46.9034C353.543 47.2596 353.493 47.6667 353.292 48.023C352.941 48.6337 352.49 48.9899 351.889 49.0917C351.287 49.1935 350.636 49.0917 349.984 48.6846C349.332 48.3283 348.931 47.8194 348.731 47.2596C348.53 46.6998 348.581 46.0891 348.881 45.5293L349.984 46.1909C349.834 46.4963 349.784 46.8016 349.884 47.0561C349.984 47.3614 350.184 47.6158 350.485 47.7685C350.836 47.9721 351.137 48.023 351.438 47.9721C351.738 47.9212 351.989 47.7176 352.189 47.3614C352.39 47.0052 352.44 46.6998 352.34 46.3945C352.24 46.0891 351.989 45.8347 351.588 45.5802L350.936 45.224L351.438 44.3588L351.488 44.2571Z" fill="#131825" fill-opacity="0.2"/>
<path d="M359.157 50.1604C358.605 51.1274 358.004 51.738 357.402 51.9925C356.751 52.2469 356.099 52.1961 355.397 51.7889C354.696 51.3818 354.295 50.822 354.194 50.1604C354.094 49.4988 354.345 48.6846 354.846 47.7177L355.498 46.5472C356.049 45.5802 356.65 44.9696 357.252 44.7151C357.853 44.4606 358.555 44.5115 359.257 44.9187C359.959 45.3258 360.36 45.8856 360.46 46.5472C360.56 47.2088 360.309 48.023 359.808 48.939L359.157 50.1095V50.1604ZM358.756 48.2775C359.106 47.6668 359.307 47.1579 359.307 46.7507C359.307 46.3436 359.106 46.0383 358.756 45.8347C358.405 45.6311 358.054 45.6311 357.753 45.8347C357.452 45.9874 357.102 46.3945 356.751 46.9543L355.899 48.481C355.548 49.0917 355.347 49.6006 355.347 50.0077C355.347 50.4149 355.548 50.7202 355.899 50.9238C356.249 51.1273 356.6 51.1273 356.901 50.9238C357.252 50.7202 357.553 50.364 357.904 49.7533L358.756 48.2266V48.2775Z" fill="#131825" fill-opacity="0.2"/>
<path d="M318.256 33.8244L313.444 32.0432L313.745 31.2289L317.053 29.4987C317.554 29.2442 317.905 28.9898 318.155 28.7862C318.406 28.5826 318.556 28.3282 318.657 28.0737C318.757 27.7175 318.807 27.4121 318.657 27.1577C318.556 26.8523 318.306 26.6997 318.005 26.547C317.604 26.3943 317.303 26.3943 317.003 26.547C316.702 26.6997 316.501 27.005 316.351 27.4121L315.148 26.9541C315.298 26.4961 315.549 26.1399 315.85 25.8854C316.151 25.5801 316.552 25.4274 317.003 25.3765C317.454 25.3256 317.905 25.3765 318.356 25.5292C319.058 25.7836 319.509 26.1399 319.81 26.6488C320.06 27.1577 320.11 27.7175 319.91 28.3282C319.759 28.6844 319.559 29.0406 319.208 29.346C318.857 29.6513 318.356 30.0076 317.754 30.3129L315.349 31.5852L318.657 32.8066L318.306 33.7735L318.256 33.8244Z" fill="#131825" fill-opacity="0.2"/>
<path d="M324.922 32.8572C324.571 33.875 324.07 34.5875 323.519 34.9946C322.967 35.4018 322.266 35.4526 321.464 35.1473C320.712 34.842 320.211 34.3839 320.01 33.7224C319.81 33.0608 319.86 32.2465 320.211 31.2287L320.662 29.9564C321.013 28.9386 321.514 28.2262 322.065 27.819C322.616 27.4628 323.318 27.4119 324.12 27.6664C324.922 27.9717 325.373 28.4297 325.574 29.0913C325.774 29.7529 325.724 30.5671 325.373 31.5849L324.922 32.8572ZM324.22 31.076C324.471 30.4145 324.571 29.8547 324.471 29.4984C324.421 29.0913 324.17 28.8368 323.769 28.6842C323.368 28.5315 323.017 28.5824 322.767 28.8368C322.466 29.0913 322.216 29.4984 321.965 30.1091L321.363 31.7376C321.113 32.3992 321.013 32.959 321.113 33.3661C321.213 33.7733 321.414 34.0277 321.815 34.1804C322.216 34.333 322.516 34.2822 322.817 34.0277C323.118 33.7733 323.368 33.3661 323.619 32.7045L324.22 31.076Z" fill="#131825" fill-opacity="0.2"/>
<path d="M280.412 23.7991L279.159 23.5956L280.212 17.4887L278.257 17.794L278.458 16.7253L281.565 16.1655H281.716L280.412 23.7991Z" fill="#131825" fill-opacity="0.2"/>
<path d="M288.382 21.967C288.182 23.0357 287.831 23.85 287.329 24.308C286.828 24.766 286.177 24.9696 285.375 24.8169C284.573 24.6642 284.021 24.308 283.67 23.6973C283.37 23.0866 283.269 22.2724 283.47 21.2037L283.721 19.8805C283.921 18.8118 284.272 17.9976 284.773 17.5395C285.274 17.0815 285.926 16.9288 286.728 17.0306C287.53 17.1833 288.131 17.5395 288.432 18.1502C288.733 18.7609 288.833 19.5752 288.633 20.6439L288.382 21.967ZM287.38 20.3385C287.48 19.6261 287.48 19.0663 287.38 18.71C287.279 18.3538 286.979 18.0993 286.578 18.0484C286.177 17.9976 285.826 18.0484 285.575 18.3538C285.324 18.6082 285.124 19.1171 285.024 19.7787L284.723 21.509C284.623 22.2215 284.623 22.7813 284.723 23.1375C284.823 23.4938 285.124 23.7482 285.575 23.7991C285.976 23.85 286.277 23.7991 286.527 23.4938C286.778 23.1884 286.979 22.7304 287.079 22.0179L287.38 20.2876V20.3385Z" fill="#131825" fill-opacity="0.2"/>
<path d="M245.025 37.7432C135.455 37.7432 46.2849 128.278 46.2849 239.525C46.2849 350.772 135.455 441.307 245.025 441.307C354.595 441.307 443.765 350.772 443.765 239.525C443.765 128.278 354.595 37.7432 245.025 37.7432ZM245.025 249.856L244.123 260.187V439.933C238.91 439.933 233.797 439.679 228.685 439.272L244.123 260.187V249.856L244.724 246.446L245.025 249.907L245.326 246.446L245.927 249.856V260.187L261.365 439.272C256.253 439.679 251.14 439.933 245.927 439.933V260.187L245.025 249.856ZM245.025 229.143L245.927 218.813V39.0663C251.14 39.0663 256.253 39.3208 261.365 39.7279L245.927 218.813V229.143L245.326 232.553L245.025 229.093L244.724 232.553L244.123 229.143V218.813L228.685 39.7279C233.797 39.3208 238.91 39.0663 244.123 39.0663V218.813L245.025 229.143ZM264.924 234.996L435.996 188.482C437.299 193.52 438.402 198.609 439.354 203.8L264.974 235.047L264.924 234.996ZM439.605 205.53C440.457 210.67 441.159 215.861 441.61 221.103L265.225 236.777L439.605 205.581V205.53ZM264.473 233.215L430.883 171.739C432.638 176.624 434.191 181.611 435.545 186.701L264.523 233.215H264.473ZM263.871 231.535L424.317 155.555C426.472 160.288 428.477 165.123 430.232 170.059L263.821 231.535H263.871ZM263.12 229.907L416.448 140.034C419.004 144.563 421.36 149.194 423.615 153.927L263.17 229.907H263.12ZM262.217 228.329L407.175 125.275C410.132 129.55 412.889 133.978 415.495 138.507L262.217 228.38V228.329ZM261.215 226.853L396.799 111.331C400.107 115.352 403.215 119.474 406.223 123.749L261.215 226.802V226.853ZM260.062 225.479L385.221 98.405C388.83 102.12 392.338 105.988 395.646 109.957L260.062 225.479ZM258.809 224.207L372.59 86.5474C376.499 89.9062 380.309 93.4686 383.968 97.1327L258.809 224.207ZM257.456 223.037L358.956 75.8095C363.166 78.812 367.226 82.0182 371.186 85.377L257.406 223.037H257.456ZM256.002 222.019L344.52 66.3947C348.981 69.041 353.292 71.84 357.552 74.8426L256.052 222.019H256.002ZM254.448 221.103L329.283 58.2013C333.944 60.4405 338.506 62.8832 342.967 65.4786L254.448 221.154V221.103ZM252.844 220.339L313.394 51.3819C318.256 53.214 323.017 55.1987 327.679 57.387L252.844 220.288V220.339ZM251.19 219.729L297.003 46.0893C302.016 47.4633 306.928 49.0409 311.74 50.8221L251.19 219.78V219.729ZM249.486 219.271L280.262 42.2216C285.375 43.1376 290.387 44.3081 295.349 45.6312L249.536 219.322L249.486 219.271ZM247.732 218.965L263.17 39.8806C268.332 40.3386 273.445 41.0511 278.508 41.9162L247.782 218.965H247.732ZM242.419 218.965L211.693 41.9162C216.755 41.0511 221.868 40.3386 227.031 39.8806L242.469 218.965H242.419ZM240.664 219.271L194.851 45.5803C199.814 44.2572 204.826 43.1376 209.938 42.1707L240.714 219.22L240.664 219.271ZM238.96 219.729L178.411 50.7712C183.223 48.99 188.135 47.4124 193.147 46.0384L238.96 219.678V219.729ZM237.306 220.339L162.471 57.4379C167.133 55.2496 171.895 53.214 176.757 51.4328L237.306 220.39V220.339ZM235.702 221.103L147.184 65.4278C151.645 62.8323 156.206 60.4405 160.867 58.1504L235.702 221.052V221.103ZM234.148 222.019L132.648 74.8426C136.858 71.84 141.219 69.041 145.68 66.3947L234.198 222.019H234.148ZM232.695 223.037L118.914 85.377C122.874 82.0182 126.934 78.8629 131.144 75.8095L232.644 223.037H232.695ZM231.341 224.207L106.183 97.1327C109.842 93.4686 113.651 89.9062 117.561 86.5474L231.341 224.207ZM230.088 225.479L94.5038 109.957C97.812 105.988 101.321 102.12 104.93 98.405L230.088 225.479ZM228.935 226.853L83.9277 123.799C86.885 119.525 90.0428 115.403 93.351 111.382L228.935 226.904V226.853ZM227.933 228.329L74.6549 138.456C77.2613 133.927 80.0181 129.55 82.9754 125.224L227.933 228.278V228.329ZM227.031 229.907L66.585 153.927C68.7904 149.194 71.1963 144.563 73.7526 140.034L227.081 229.907H227.031ZM226.279 231.535L59.8684 170.059C61.6729 165.123 63.6277 160.288 65.783 155.555L226.229 231.535H226.279ZM225.677 233.215L54.6556 186.701C56.0089 181.611 57.5627 176.624 59.3171 171.739L225.727 233.215H225.677ZM225.226 234.945L50.8462 203.698C51.7484 198.507 52.9012 193.418 54.2044 188.38L225.276 234.894L225.226 234.945ZM224.925 236.726L48.5405 221.052C48.9916 215.81 49.6933 210.619 50.5454 205.479L224.925 236.675V236.726ZM224.775 238.507H47.5881C47.5881 233.215 47.8387 228.024 48.2397 222.833L224.625 238.507H224.775ZM224.775 240.289L48.3901 255.963C47.9891 250.772 47.7385 245.581 47.7385 240.289H224.775ZM224.925 242.07L50.5454 273.266C49.6933 268.126 48.9916 262.935 48.5405 257.693L224.925 242.019V242.07ZM225.226 243.851L54.1543 290.365C52.8511 285.327 51.7484 280.238 50.796 275.047L225.176 243.8L225.226 243.851ZM225.677 245.581L59.2669 307.057C57.5126 302.172 55.9588 297.184 54.6054 292.095L225.627 245.581H225.677ZM226.279 247.261L65.8331 323.241C63.6778 318.508 61.6729 313.673 59.9185 308.737L226.329 247.261H226.279ZM227.031 248.889L73.7025 338.762C71.1462 334.233 68.7904 329.602 66.5348 324.869L226.981 248.889H227.031ZM227.933 250.467L82.9754 353.521C80.0181 349.246 77.2613 344.818 74.6549 340.289L227.933 250.416V250.467ZM228.935 251.943L93.351 367.465C90.0428 363.444 86.9352 359.322 83.9277 355.047L228.935 251.993V251.943ZM230.088 253.317L104.93 380.391C101.321 376.676 97.812 372.808 94.5038 368.839L230.088 253.317ZM231.341 254.589L117.561 392.248C113.651 388.89 109.842 385.327 106.183 381.663L231.341 254.589ZM232.695 255.759L131.194 402.986C126.984 399.984 122.924 396.778 118.964 393.419L232.745 255.759H232.695ZM234.148 256.777L145.63 412.401C141.169 409.755 136.858 406.956 132.598 403.953L234.098 256.777H234.148ZM235.702 257.693L160.867 420.595C156.206 418.355 151.645 415.913 147.184 413.317L235.702 257.642V257.693ZM237.306 258.457L176.757 427.414C171.895 425.582 167.133 423.597 162.471 421.409L237.306 258.507V258.457ZM238.96 259.067L193.147 432.707C188.135 431.333 183.223 429.755 178.411 427.974L238.96 259.016V259.067ZM240.664 259.525L209.888 436.574C204.776 435.658 199.763 434.488 194.801 433.165L240.614 259.474L240.664 259.525ZM242.419 259.831L226.981 438.915C221.818 438.457 216.705 437.745 211.643 436.88L242.368 259.831H242.419ZM247.732 259.831L278.457 436.88C273.395 437.745 268.282 438.457 263.12 438.915L247.682 259.831H247.732ZM249.486 259.525L295.299 433.216C290.337 434.539 285.324 435.658 280.212 436.625L249.436 259.576L249.486 259.525ZM251.19 259.067L311.74 428.025C306.928 429.806 302.016 431.383 297.003 432.758L251.19 259.118V259.067ZM252.844 258.457L327.679 421.358C323.017 423.546 318.256 425.582 313.394 427.363L252.844 258.406V258.457ZM254.448 257.693L342.967 413.368C338.506 415.964 333.944 418.355 329.283 420.646L254.448 257.744V257.693ZM256.002 256.777L357.502 403.953C353.292 406.956 348.931 409.755 344.47 412.401L255.952 256.777H256.002ZM257.456 255.759L371.236 393.419C367.276 396.778 363.216 399.933 359.006 402.986L257.506 255.759H257.456ZM258.809 254.589L383.968 381.663C380.309 385.327 376.499 388.89 372.59 392.248L258.809 254.589ZM260.062 253.317L395.646 368.839C392.338 372.808 388.83 376.676 385.221 380.391L260.062 253.317ZM261.215 251.943L406.223 354.996C403.265 359.271 400.107 363.393 396.799 367.414L261.215 251.892V251.943ZM262.217 250.467L415.495 340.34C412.889 344.869 410.132 349.246 407.175 353.571L262.217 250.518V250.467ZM263.12 248.889L423.565 324.869C421.36 329.602 418.954 334.233 416.398 338.762L263.07 248.889H263.12ZM263.871 247.261L430.282 308.737C428.477 313.673 426.523 318.508 424.367 323.241L263.922 247.261H263.871ZM264.473 245.581L435.495 292.095C434.141 297.184 432.588 302.172 430.833 307.057L264.423 245.581H264.473ZM264.924 243.851L439.304 275.098C438.402 280.289 437.249 285.378 435.946 290.416L264.874 243.902L264.924 243.851ZM265.225 242.07L441.61 257.744C441.159 262.986 440.457 268.177 439.605 273.317L265.225 242.121V242.07ZM265.375 240.289H442.412C442.412 245.581 442.161 250.772 441.76 255.963L265.375 240.289ZM265.375 238.507L441.76 222.833C442.161 228.024 442.412 233.215 442.412 238.507H265.375Z" fill="#131825" fill-opacity="0.2"/>
</g>
<defs>
<clipPath id="clip0_1376_6902">
<rect width="490" height="479" fill="white"/>
</clipPath>
</defs>
</svg>
