<svg width="14" height="14" viewBox="0 0 14 14" fill="none" xmlns="http://www.w3.org/2000/svg">
            <path
                d="M13.36 3.393c-.153-.647-.603-1.156-1.174-1.329C11.15 1.75 7 1.75 7 1.75s-4.151 0-5.186.314C1.243 2.237.793 2.746.64 3.393.363 4.565.363 7.01.363 7.01s0 2.445.277 3.617c.153.647.603 1.135 1.174 1.308C2.849 12.25 7 12.25 7 12.25s4.15 0 5.186-.314c.571-.173 1.02-.661 1.174-1.308.277-1.172.277-3.617.277-3.617s0-2.446-.277-3.618zM5.642 9.23v-4.44l3.47 2.22-3.47 2.22z"
                fill="#CCC" />
        </svg>